<svg width="251" height="251" viewBox="0 0 251 251" fill="none" xmlns="http://www.w3.org/2000/svg">
<path d="M125.5 251C194.812 251 251 219.052 251 179.643C251 140.234 194.812 108.286 125.5 108.286C56.1883 108.286 0 140.234 0 179.643C0 219.052 56.1883 251 125.5 251Z" fill="#92E3A9"/>
<path opacity="0.1" d="M125.5 251C194.812 251 251 219.052 251 179.643C251 140.234 194.812 108.286 125.5 108.286C56.1883 108.286 0 140.234 0 179.643C0 219.052 56.1883 251 125.5 251Z" fill="#92E3A9"/>
<path opacity="0.2" d="M17.7568 173.062C12.851 175.822 8.78655 184.747 18.7403 186.492C21.9338 187.054 27.6809 186.584 34.2515 185.357C38.9025 184.484 43.0677 184.594 47.1795 186.999C50.2308 188.788 53.922 190.979 57.9864 192.86C82.4442 204.19 88.8252 193.47 88.8252 193.47C90.8337 194.276 93.7191 193.769 97.2207 194.526C101.321 195.405 107.802 201.241 118.639 199.715C129.476 198.189 127.68 190.558 112.785 186.413C97.8902 182.268 55.3143 167.928 42.4337 166.115C29.5531 164.302 17.7568 173.062 17.7568 173.062Z" fill="#92E3A9"/>
<path d="M187.586 193.781L187.195 194.007C182.888 196.449 179.161 195.668 177.716 194.08C177.716 194.08 176.163 186.846 182.059 182.622C187.954 178.398 193.565 179.344 193.565 179.344C193.565 179.344 194.868 189.325 187.586 193.781Z" fill="#92E3A9"/>
<path opacity="0.25" d="M187.586 193.781L187.195 194.007C182.888 196.449 179.161 195.668 177.716 194.08C177.716 194.08 176.163 186.846 182.059 182.622C187.954 178.398 193.565 179.344 193.565 179.344C193.565 179.344 194.868 189.325 187.586 193.781Z" fill="#92E3A9"/>
<path opacity="0.2" d="M187.586 193.781L187.195 194.007C182.888 196.449 179.161 195.668 177.716 194.08C180.53 184.954 193.565 179.344 193.565 179.344C193.565 179.344 194.868 189.325 187.586 193.781Z" fill="#92E3A9"/>
<path d="M176.169 199.312C176.169 199.312 173.171 205.71 178.213 209.599C183.255 213.487 191.615 212.132 191.615 212.132C191.615 212.132 192.54 203.195 186.253 199.196C184.737 198.223 182.981 197.717 181.195 197.738C179.408 197.758 177.665 198.305 176.169 199.312Z" fill="#92E3A9"/>
<path opacity="0.25" d="M176.169 199.312C176.169 199.312 173.171 205.71 178.213 209.599C183.255 213.487 191.615 212.132 191.615 212.132C191.615 212.132 192.54 203.195 186.253 199.196C184.737 198.223 182.981 197.717 181.195 197.738C179.408 197.758 177.665 198.305 176.169 199.312Z" fill="#92E3A9"/>
<path opacity="0.2" d="M178.237 209.605C183.196 213.426 191.639 212.126 191.639 212.126C188.084 204.226 176.193 199.306 176.193 199.306C176.193 199.306 173.171 205.716 178.237 209.605Z" fill="#92E3A9"/>
<path d="M158.004 185.357C157.836 185.552 157.698 185.772 157.595 186.01C157.44 186.38 157.36 186.779 157.36 187.182C157.36 187.586 157.44 187.984 157.595 188.354C157.53 188.208 156.754 188.995 156.7 189.075C156.451 189.446 156.334 189.895 156.368 190.345C156.463 191.358 157.299 192.249 158.016 192.86C160.083 194.618 163.597 195.698 166.269 195.68C164.733 195.924 163.172 195.947 161.63 195.747C159.971 195.546 158.252 194.746 156.588 194.587C156.199 194.507 155.796 194.587 155.464 194.809C155.131 195.032 154.897 195.379 154.81 195.778C154.71 196.143 154.731 196.532 154.87 196.883C155.008 197.235 155.256 197.529 155.574 197.719C155.186 197.684 154.794 197.749 154.436 197.908C154.077 198.067 153.762 198.314 153.519 198.629C153.322 198.983 153.234 199.391 153.268 199.798C153.302 200.204 153.456 200.591 153.708 200.906C154.232 201.528 154.964 201.924 155.758 202.017C156.546 202.111 157.343 202.101 158.128 201.986C157.482 202.597 157.672 203.818 158.33 204.428C158.682 204.709 159.085 204.916 159.515 205.036C159.945 205.157 160.394 205.189 160.836 205.13C163.686 204.941 166.121 203.024 168.354 201.186C167.929 201.773 167.638 202.451 167.502 203.17C167.365 203.888 167.387 204.629 167.566 205.338C167.768 206.001 168.096 206.617 168.53 207.149C168.964 207.681 169.497 208.12 170.096 208.439C170.354 208.597 170.645 208.685 170.945 208.696C171.244 208.707 171.541 208.639 171.809 208.5C172.084 208.266 172.373 208.05 172.674 207.853C172.996 207.724 173.353 207.724 173.675 207.853C174.558 208.14 175.452 208.53 176.294 207.81C176.467 207.658 176.61 207.472 176.711 207.262C176.813 207.052 176.873 206.823 176.886 206.589C177.889 206.698 178.895 206.417 179.706 205.802C180.933 204.88 180.767 203.567 179.754 202.487C178.741 201.406 177.23 200.655 176.24 199.318C177.925 200.643 179.937 201.453 182.047 201.656C184.191 201.772 186.336 201.925 188.404 201.125C189.077 200.913 189.666 200.486 190.087 199.904C190.283 199.607 190.366 199.246 190.319 198.889C190.272 198.533 190.099 198.207 189.832 197.975C190.541 197.517 191.106 196.858 191.461 196.077C191.635 195.68 191.698 195.242 191.643 194.811C191.589 194.38 191.419 193.973 191.153 193.635C190.879 193.344 190.522 193.151 190.133 193.085C189.745 193.019 189.347 193.084 188.997 193.269C189.63 192.573 189.299 191.321 188.511 190.827C188.097 190.612 187.641 190.5 187.178 190.5C186.715 190.5 186.258 190.612 185.844 190.827C185.017 191.267 184.225 191.773 183.475 192.341C181.952 193.369 180.17 193.914 178.35 193.91C179.353 193.083 180.18 192.052 180.778 190.881C181.377 189.709 181.734 188.423 181.827 187.103C181.906 186.429 181.848 185.744 181.656 185.095C181.556 184.772 181.387 184.475 181.163 184.227C180.939 183.979 180.664 183.786 180.358 183.66C180.046 183.548 179.706 183.547 179.394 183.658C179.081 183.769 178.813 183.984 178.634 184.27C178.427 182.567 177.028 180.754 175.198 181.377C174.773 181.541 174.392 181.804 174.083 182.147C173.775 182.489 173.548 182.9 173.42 183.349C173.533 182.97 172.466 182.738 172.271 182.738C172.01 182.729 171.751 182.779 171.512 182.885C171.272 182.99 171.058 183.148 170.884 183.349C170.441 183.925 170.229 184.655 170.292 185.388C170.351 186.116 170.482 186.836 170.683 187.536C171.203 189.425 171.435 191.386 171.37 193.348C169.913 191.727 168.826 189.792 168.188 187.683C167.985 186.951 167.746 186.229 167.472 185.522C166.778 183.935 164.989 182.531 163.241 183.184C162.754 183.371 162.326 183.693 162.004 184.114C161.682 184.535 161.479 185.039 161.416 185.571C161.201 185.235 160.897 184.97 160.54 184.806C160.183 184.643 159.788 184.588 159.402 184.649C158.871 184.713 158.377 184.963 158.004 185.357Z" fill="#455A64"/>
<path d="M185.009 196.144C184.071 196.559 183.067 196.793 182.047 196.834C181.012 196.901 179.974 196.858 178.948 196.706C177.988 196.571 177.022 196.419 176.074 196.217C175.606 196.119 175.15 196.003 174.694 195.869C174.238 195.735 173.894 195.582 173.509 195.497C173.616 195.369 173.716 195.228 173.817 195.1C174.585 194.186 175.153 193.111 175.482 191.95C175.768 191.085 175.984 190.197 176.128 189.295C176.252 188.513 176.519 187.463 176.128 186.718C176.092 186.639 175.956 186.547 175.92 186.688C175.808 187.06 175.76 187.433 175.63 187.805C175.5 188.177 175.363 188.592 175.257 188.989C175.03 189.839 174.757 190.674 174.439 191.492C174.162 192.236 173.816 192.952 173.408 193.629C173.206 193.937 172.987 194.233 172.751 194.514C172.56 194.725 172.397 194.961 172.265 195.216C172.134 195.189 171.998 195.209 171.88 195.271L171.726 195.356C171.601 195.32 171.477 195.301 171.376 195.271C171.133 195.21 170.89 195.149 170.647 195.076C170.143 194.923 169.655 194.718 169.19 194.465C168.361 194.032 167.576 193.512 166.849 192.915C166.183 192.326 165.586 191.658 165.072 190.924C164.705 190.436 164.361 189.935 164.011 189.441C163.702 189.082 163.457 188.668 163.289 188.22C163.289 188.122 163.164 188.11 163.146 188.22C163.129 188.571 163.207 188.92 163.372 189.227C163.603 189.734 163.863 190.235 164.112 190.735C164.592 191.744 165.244 192.656 166.038 193.427C166.834 194.196 167.729 194.85 168.698 195.369C169.195 195.624 169.715 195.828 170.25 195.979L170.458 196.046C170.09 196.254 169.723 196.455 169.338 196.657C168.482 197.069 167.606 197.436 166.713 197.756C164.727 198.428 162.671 198.855 160.587 199.025C160.439 199.025 160.51 199.355 160.634 199.373C164.391 200.014 168.337 198.726 171.66 196.791C171.599 197.928 171.735 199.067 172.063 200.155C172.275 200.923 172.561 201.667 172.917 202.377C173.1 202.737 173.29 203.097 173.509 203.445C173.726 203.76 173.924 204.088 174.101 204.428C174.143 204.526 174.226 204.428 174.226 204.373C174.21 203.811 174.087 203.257 173.864 202.743C173.598 201.974 173.313 201.205 173.1 200.417C172.671 199.008 172.582 197.512 172.84 196.058C172.853 196.086 172.869 196.113 172.887 196.138C173.263 196.45 173.709 196.66 174.184 196.748C174.756 196.928 175.338 197.071 175.926 197.176C176.957 197.365 178 197.548 179.043 197.633C180.1 197.735 181.164 197.721 182.219 197.591C182.758 197.518 183.288 197.387 183.8 197.2C184.273 196.986 184.72 196.718 185.134 196.4C185.181 196.351 185.134 196.083 185.009 196.144Z" fill="#37474F"/>
<path d="M173.669 194.978C175.091 195.643 175.358 196.84 174.261 197.652C173.165 198.464 171.115 198.58 169.687 197.914C168.26 197.249 168.005 196.083 169.095 195.24C170.185 194.398 172.247 194.312 173.669 194.978Z" fill="#F0997A"/>
<path opacity="0.05" d="M172.567 197.517C170.837 197.865 169.012 197.145 168.42 196.266C168.348 196.876 168.787 197.487 169.676 197.914C171.104 198.58 173.148 198.464 174.25 197.652C174.404 197.57 174.54 197.456 174.648 197.316C174.756 197.176 174.834 197.015 174.877 196.842C174.921 196.669 174.928 196.488 174.898 196.312C174.868 196.136 174.803 195.968 174.706 195.82C174.587 196.492 174.001 197.237 172.567 197.517Z" fill="#92E3A9"/>
<path d="M210.729 196.364C210.729 196.364 210.474 194.422 208.951 194.306C208.951 194.306 207.725 194.172 207.174 196.168C207.174 196.168 205.639 195.497 203.684 196.779C203.64 197.334 203.797 197.887 204.125 198.33C204.454 198.774 204.93 199.076 205.462 199.178C205.462 199.178 204.366 200.161 205.035 202.285C205.035 202.285 208.14 203.134 208.768 201.138C208.768 201.138 209.141 202.859 212.115 202.67C212.447 202.143 212.606 201.521 212.568 200.895C212.531 200.268 212.3 199.671 211.908 199.19C211.908 199.19 213.993 198.989 214.236 197.359C214.248 197.395 212.684 195.039 210.729 196.364Z" fill="#8F8F8F"/>
<path d="M208.916 196.785C208.434 196.749 207.955 196.888 207.562 197.176C207.168 197.465 206.885 197.885 206.759 198.366C206.759 198.366 206.83 199.501 208.732 199.544C210.634 199.587 210.859 198.433 210.859 198.433C210.792 197.959 210.556 197.527 210.196 197.222C209.837 196.918 209.381 196.762 208.916 196.785Z" fill="#F0997A"/>
<path d="M214.313 185.619C214.313 185.619 213.567 184.276 212.465 184.185C211.902 184.722 211.559 185.46 211.505 186.248C211.08 186.174 210.645 186.204 210.234 186.334C209.822 186.464 209.446 186.692 209.135 186.999C209.255 187.396 209.465 187.758 209.747 188.055C210.03 188.352 210.376 188.576 210.758 188.708C210.519 189.563 210.603 190.48 210.995 191.272C210.995 191.272 213.105 191.303 213.739 189.441C213.739 189.441 214.586 190.589 216.701 190.051C216.84 189.576 216.824 189.066 216.655 188.601C216.486 188.135 216.173 187.74 215.765 187.475C215.765 187.475 217.039 186.602 216.802 185.302C215.964 185.064 215.069 185.178 214.313 185.619Z" fill="#8F8F8F"/>
<path d="M213.194 186.492C212.837 186.52 212.5 186.676 212.242 186.932C211.985 187.189 211.823 187.53 211.784 187.897C211.784 187.897 211.955 188.721 213.354 188.538C214.752 188.354 214.793 187.475 214.793 187.475C214.693 187.136 214.473 186.848 214.178 186.666C213.882 186.484 213.531 186.422 213.194 186.492Z" fill="#F0997A"/>
<path d="M203.287 187.152C203.287 187.152 202.801 185.931 202.037 186.413C201.273 186.895 201.593 187.634 202.292 187.787C202.292 187.787 200.84 188.397 201.302 189.166C201.765 189.935 202.985 189.02 203.234 188.556C203.234 188.556 203.584 189.777 204.585 189.27C205.586 188.763 204.496 187.762 204.496 187.762C204.496 187.762 206.042 187.024 205.136 186.334C204.229 185.644 203.287 187.152 203.287 187.152Z" fill="#8F8F8F"/>
<path d="M219.48 193.958C219.48 193.958 219.527 192.646 218.639 192.737C217.75 192.829 217.738 193.678 218.319 194.093C218.319 194.093 216.766 194.013 216.867 194.929C216.968 195.845 218.455 195.54 218.864 195.216C218.864 195.216 218.686 196.486 219.806 196.437C220.926 196.388 220.333 195.021 220.333 195.021C220.333 195.021 222.033 195.021 221.482 193.995C220.931 192.969 219.48 193.958 219.48 193.958Z" fill="#8F8F8F"/>
<path d="M198.464 194.886C198.464 194.886 197.362 193.562 198.121 193.171C198.879 192.78 199.276 193.964 199.276 193.964C199.276 193.964 199.993 192.969 200.402 193.623C200.811 194.276 199.91 195.045 199.91 195.045C199.91 195.045 201.012 195.57 200.431 196.199C199.851 196.828 199.063 195.942 199.063 195.942C199.063 195.942 198.707 197.023 198.044 196.773C197.38 196.522 197.712 195.271 198.464 194.886Z" fill="#8F8F8F"/>
<path d="M165.623 217.455C165.623 217.455 164.509 215.709 163.022 215.679C162.304 216.447 161.899 217.469 161.89 218.536C161.316 218.478 160.736 218.558 160.196 218.77C159.656 218.981 159.172 219.319 158.78 219.756C158.975 220.281 159.287 220.751 159.692 221.128C160.097 221.504 160.582 221.777 161.108 221.924C160.85 223.091 161.035 224.316 161.624 225.348C161.624 225.348 164.468 225.208 165.179 222.662C165.179 222.662 166.417 224.133 169.219 223.212C169.37 222.56 169.309 221.875 169.044 221.262C168.78 220.65 168.327 220.144 167.756 219.824C167.756 219.824 169.403 218.542 168.982 216.808C168.409 216.683 167.817 216.675 167.24 216.786C166.664 216.897 166.114 217.125 165.623 217.455Z" fill="#8F8F8F"/>
<path d="M164.148 218.755C163.672 218.824 163.234 219.062 162.91 219.427C162.585 219.793 162.395 220.263 162.37 220.758C162.37 220.758 162.667 221.856 164.539 221.49C166.411 221.124 166.387 219.94 166.387 219.94C166.226 219.489 165.906 219.117 165.491 218.898C165.077 218.679 164.597 218.628 164.148 218.755Z" fill="#F0997A"/>
<path d="M145.473 212.877C145.473 212.877 144.525 211.534 143.346 211.564C142.805 212.201 142.522 213.026 142.552 213.872C142.094 213.847 141.636 213.933 141.216 214.121C140.795 214.31 140.423 214.596 140.128 214.958C140.302 215.367 140.567 215.727 140.901 216.009C141.236 216.292 141.631 216.488 142.054 216.582C141.89 217.52 142.078 218.487 142.581 219.286C142.581 219.286 144.833 219.061 145.301 217.016C145.301 217.016 146.332 218.139 148.524 217.296C148.617 216.773 148.542 216.233 148.31 215.759C148.078 215.284 147.701 214.9 147.238 214.665C147.238 214.665 148.5 213.591 148.109 212.223C147.181 212.074 146.233 212.308 145.473 212.877Z" fill="#8F8F8F"/>
<path d="M144.353 213.963C143.975 214.035 143.633 214.239 143.387 214.543C143.14 214.846 143.004 215.228 143.002 215.624C143.002 215.624 143.28 216.479 144.779 216.118C146.278 215.758 146.19 214.818 146.19 214.818C146.047 214.461 145.777 214.174 145.436 214.015C145.094 213.856 144.707 213.838 144.353 213.963Z" fill="#F0997A"/>
<path d="M155.201 212.809C155.201 212.809 154.609 211.137 153.566 211.717C152.523 212.296 152.885 213.353 153.815 213.585C153.815 213.585 151.824 214.268 152.387 215.361C152.95 216.454 154.662 215.3 155.029 214.72C155.029 214.72 155.415 216.405 156.807 215.788C158.199 215.172 156.807 213.749 156.807 213.749C156.807 213.749 158.934 212.876 157.767 211.881C156.6 210.886 155.201 212.809 155.201 212.809Z" fill="#8F8F8F"/>
<path d="M150.242 223.914C150.242 223.914 148.003 224.39 148.05 223.218C148.097 222.046 149.715 222.333 149.715 222.333C149.715 222.333 149.045 220.807 150.059 220.733C151.072 220.66 151.368 222.259 151.368 222.259C151.368 222.259 152.683 221.264 153.027 222.382C153.371 223.499 151.842 223.877 151.842 223.877C151.842 223.877 152.849 225.019 152.12 225.66C151.392 226.301 150.189 225.08 150.242 223.914Z" fill="#8F8F8F"/>
<path d="M26.6854 149.865L31.8934 147.362C31.8934 147.362 34.0204 136.502 33.9197 127.937C33.7775 115.898 27.4853 100.875 18.2662 103.469C9.04717 106.064 21.0687 119.341 23.1246 129.719C25.1805 140.097 26.6854 149.865 26.6854 149.865Z" fill="#92E3A9"/>
<path opacity="0.3" d="M26.6854 149.865L31.8934 147.362C31.8934 147.362 34.0204 136.502 33.9197 127.937C33.7775 115.898 27.4853 100.875 18.2662 103.469C9.04717 106.064 21.0687 119.341 23.1246 129.719C25.1805 140.097 26.6854 149.865 26.6854 149.865Z" fill="#92E3A9"/>
<path d="M29.399 148.864C29.3204 148.852 29.2493 148.809 29.2008 148.744C29.1522 148.679 29.1298 148.597 29.1383 148.516C32.2133 122.077 20.5058 107.615 20.3933 107.462C20.3672 107.431 20.3472 107.395 20.3346 107.357C20.322 107.318 20.3169 107.277 20.3196 107.236C20.3224 107.195 20.3329 107.155 20.3506 107.119C20.3684 107.082 20.3929 107.049 20.4229 107.023C20.484 106.97 20.5626 106.943 20.6421 106.949C20.7217 106.955 20.796 106.992 20.8495 107.053C20.968 107.2 32.8473 121.881 29.7367 148.565C29.7354 148.608 29.7253 148.65 29.7073 148.689C29.6892 148.728 29.6635 148.762 29.6317 148.791C29.5999 148.819 29.5629 148.84 29.5228 148.852C29.4828 148.865 29.4406 148.869 29.399 148.864Z" fill="white"/>
<path d="M23.4031 151.446L27.118 149.657C27.118 149.657 28.3444 142.179 25.5183 132.723C23.0654 124.488 15.8785 117.205 11.8911 118.249C7.90371 119.293 7.74374 122.144 9.39085 125.294C11.038 128.444 21.9752 136.569 23.4031 151.446Z" fill="#92E3A9"/>
<path opacity="0.15" d="M23.4031 151.446L27.118 149.657C27.118 149.657 28.3444 142.179 25.5183 132.723C23.0654 124.488 15.8785 117.205 11.8911 118.249C7.90371 119.293 7.74374 122.144 9.39085 125.294C11.038 128.444 21.9752 136.569 23.4031 151.446Z" fill="#92E3A9"/>
<path d="M25.3346 150.811C25.2951 150.808 25.2566 150.797 25.2214 150.778C25.1861 150.759 25.1549 150.734 25.1295 150.702C25.1041 150.671 25.085 150.635 25.0734 150.596C25.0619 150.557 25.058 150.516 25.0621 150.475C26.5255 133.712 12.1874 121.033 12.0274 120.904C11.9971 120.878 11.9721 120.846 11.9539 120.809C11.9356 120.773 11.9246 120.733 11.9213 120.692C11.918 120.651 11.9225 120.61 11.9346 120.571C11.9467 120.532 11.9662 120.496 11.9918 120.465C12.0175 120.434 12.0489 120.408 12.0843 120.389C12.1196 120.37 12.1582 120.359 12.1978 120.355C12.2374 120.352 12.2773 120.357 12.3151 120.369C12.353 120.382 12.3881 120.402 12.4184 120.428C12.5666 120.556 27.1417 133.449 25.6486 150.53C25.6411 150.609 25.6044 150.683 25.5459 150.735C25.4875 150.787 25.4119 150.814 25.3346 150.811Z" fill="white"/>
<path d="M220.665 148.876L215.747 145.945C215.747 145.945 212.814 133.4 213.97 122.137C215.611 106.265 223.9 99.3611 229.599 101.669C233.397 103.207 234.57 107.651 228.195 117.101C224.451 122.662 219.823 134.273 220.665 148.876Z" fill="#92E3A9"/>
<g opacity="0.3">
<path d="M220.665 148.876L215.747 145.945C215.747 145.945 212.814 133.4 213.97 122.137C215.611 106.265 223.9 99.3611 229.599 101.669C233.397 103.207 234.57 107.651 228.195 117.101C224.451 122.662 219.823 134.273 220.665 148.876Z" fill="#92E3A9"/>
</g>
<path d="M218.627 142.71H218.674C218.762 142.692 218.84 142.639 218.891 142.563C218.942 142.486 218.962 142.392 218.947 142.301C216.245 127.65 221.21 111.222 227.354 104.379C227.417 104.313 227.452 104.224 227.452 104.132C227.452 104.039 227.417 103.951 227.354 103.884C227.289 103.82 227.202 103.783 227.111 103.783C227.02 103.783 226.933 103.82 226.868 103.884C220.611 110.856 215.558 127.564 218.295 142.411C218.305 142.494 218.344 142.57 218.406 142.625C218.467 142.68 218.545 142.711 218.627 142.71Z" fill="white"/>
<path d="M233.557 156.543C234.333 156.952 236.401 155.127 236.982 154.712C237.968 153.94 238.745 152.921 239.239 151.751C239.792 150.421 239.931 148.947 239.636 147.533C239.476 146.789 239.268 146.057 239.014 145.341L238.303 143.211C238.024 142.527 237.885 141.791 237.894 141.05C238.001 139.566 239.221 138.467 240.335 137.515C241.568 136.459 242.836 135.073 242.741 133.309C242.585 131.927 241.987 130.638 241.04 129.646C240.163 128.614 239.138 127.711 238.333 126.594C237.707 125.833 237.354 124.874 237.331 123.877C237.382 123.265 237.551 122.669 237.829 122.125C238.386 120.935 239.133 119.836 239.494 118.566C239.855 117.296 239.719 115.758 238.73 114.903C237.924 114.214 236.769 114.171 235.726 114.293C234.753 114.468 233.829 114.859 233.018 115.441C230.352 117.15 228.954 120.575 226.11 121.93C224.975 122.36 223.816 122.717 222.638 122.998C221.482 123.377 220.321 124.054 219.835 125.196C218.876 127.448 220.985 130.08 220.351 132.418C219.788 134.518 217.88 135.409 216.885 137.301C216.479 138.146 216.346 139.102 216.506 140.03C216.677 141.603 217.126 143.13 217.833 144.535C218.624 145.977 219.501 147.367 220.457 148.699C220.457 148.699 233.439 156.482 233.557 156.543Z" fill="#92E3A9"/>
<g opacity="0.15">
<path d="M233.557 156.543C234.333 156.952 236.401 155.127 236.982 154.712C237.968 153.94 238.745 152.921 239.239 151.751C239.792 150.421 239.931 148.947 239.636 147.533C239.476 146.789 239.268 146.057 239.014 145.341L238.303 143.211C238.024 142.527 237.885 141.791 237.894 141.05C238.001 139.566 239.221 138.467 240.335 137.515C241.568 136.459 242.836 135.073 242.741 133.309C242.585 131.927 241.987 130.638 241.04 129.646C240.163 128.614 239.138 127.711 238.333 126.594C237.707 125.833 237.354 124.874 237.331 123.877C237.382 123.265 237.551 122.669 237.829 122.125C238.386 120.935 239.133 119.836 239.494 118.566C239.855 117.296 239.719 115.758 238.73 114.903C237.924 114.214 236.769 114.171 235.726 114.293C234.753 114.468 233.829 114.859 233.018 115.441C230.352 117.15 228.954 120.575 226.11 121.93C224.975 122.36 223.816 122.717 222.638 122.998C221.482 123.377 220.321 124.054 219.835 125.196C218.876 127.448 220.985 130.08 220.351 132.418C219.788 134.518 217.88 135.409 216.885 137.301C216.479 138.146 216.346 139.102 216.506 140.03C216.677 141.603 217.126 143.13 217.833 144.535C218.624 145.977 219.501 147.367 220.457 148.699C220.457 148.699 233.439 156.482 233.557 156.543Z" fill="#92E3A9"/>
</g>
<path d="M226.027 152.502C226.072 152.499 226.116 152.487 226.156 152.466C226.196 152.445 226.232 152.416 226.261 152.381C226.29 152.346 226.313 152.305 226.326 152.26C226.34 152.216 226.345 152.17 226.341 152.123C225.097 138.205 230.719 122.473 235.139 117.76C235.176 117.729 235.207 117.689 235.228 117.644C235.249 117.6 235.261 117.551 235.263 117.501C235.265 117.451 235.257 117.402 235.239 117.355C235.22 117.309 235.193 117.268 235.158 117.233C235.124 117.198 235.082 117.172 235.037 117.155C234.991 117.138 234.943 117.131 234.894 117.135C234.846 117.138 234.799 117.153 234.757 117.176C234.714 117.2 234.677 117.233 234.647 117.272C230.139 122.076 224.397 138.071 225.659 152.184C225.67 152.276 225.714 152.359 225.782 152.418C225.85 152.477 225.938 152.507 226.027 152.502Z" fill="white"/>
<path d="M227.366 135.336C227.399 135.342 227.433 135.342 227.467 135.336C230.63 134.259 233.898 133.541 237.213 133.193C237.303 133.184 237.386 133.138 237.444 133.066C237.502 132.994 237.529 132.901 237.521 132.808C237.518 132.762 237.506 132.716 237.485 132.674C237.465 132.633 237.436 132.596 237.401 132.566C237.366 132.536 237.326 132.514 237.282 132.501C237.238 132.489 237.193 132.485 237.148 132.491C233.776 132.844 230.452 133.577 227.236 134.676C227.157 134.703 227.091 134.758 227.049 134.831C227.008 134.905 226.994 134.991 227.01 135.075C227.026 135.158 227.071 135.232 227.136 135.284C227.202 135.335 227.284 135.36 227.366 135.354V135.336Z" fill="white"/>
<path d="M121.856 191.468C121.483 192.274 117.442 194.624 111.991 194.239C107.955 193.946 104.068 192.544 100.734 190.18C98.6605 188.757 96.4979 188.495 93.7962 188.348C91.8175 188.239 89.8798 187.725 88.0965 186.834C87.5426 186.606 87.0751 186.199 86.7634 185.674C86.6571 185.425 86.6061 185.154 86.6143 184.881C86.6225 184.609 86.6897 184.342 86.8108 184.099C87.0564 183.615 87.433 183.214 87.8951 182.946C89.4474 181.987 90.976 182.714 92.5875 183.025L96.6224 183.812L107.613 185.949L117.91 187.951L122.058 188.757C122.326 189.654 122.254 190.623 121.856 191.468Z" fill="#263238"/>
<path d="M91.0885 170.62C91.2248 170.181 94.7678 154.718 94.7678 154.718L108.105 159.083C108.413 159.083 102.032 175.101 102.18 175.101C102.328 175.101 98.1509 178.062 94.0509 176.707C89.9509 175.352 91.0885 170.62 91.0885 170.62Z" fill="#FFA8A7"/>
<path d="M122.004 188.751C121.728 189.482 121.215 190.092 120.553 190.479C118.449 191.761 112.916 193.134 107.115 191.443C103.957 190.515 100.444 187.036 96.2905 186.706C94.8599 186.593 93.4385 186.379 92.0365 186.065C90.6738 185.754 89.0741 185.534 87.8891 184.765C86.876 184.154 86.4731 182.708 86.479 181.535C86.5352 180.311 86.8125 179.108 87.2966 177.989C87.7836 176.871 88.1799 175.713 88.4816 174.527C88.5848 173.644 88.7836 172.776 89.0741 171.939C89.4414 171.133 90.259 170.443 91.1004 170.608C90.9108 172 91.6929 174.649 93.4288 174.491C94.2405 174.411 94.7738 173.606 95.4788 173.184C96.3278 172.765 97.2936 172.67 98.2043 172.916C99.1062 173.165 100.032 173.31 100.965 173.349C102.15 173.3 102.488 173.264 103.211 172.293C103.442 173.77 104.787 175.065 105.788 176.194C106.849 177.241 108.062 178.111 109.384 178.77C111.162 179.747 112.939 180.516 114.758 181.371C116.577 182.225 119.119 182.769 120.588 183.812C121.318 184.361 121.852 185.142 122.108 186.035C122.364 186.927 122.328 187.882 122.004 188.751Z" fill="#37474F"/>
<path d="M37.2791 151.94L45.7872 155.835L37.8183 168.105L30.1575 164.156C29.4703 163.326 28.9576 162.358 28.6516 161.314C28.3457 160.269 28.2532 159.171 28.38 158.088C28.6881 154.199 34.3937 148.607 37.2791 151.94Z" fill="#FFA8A7"/>
<path d="M28.1312 180.278C26.2589 181.303 22.2834 181.023 19.0543 178.831C15.8253 176.639 15.055 171.689 16.2222 168.087C17.6383 163.716 20.1326 161.585 21.0628 158.973C21.993 156.36 21.9516 152.526 23.1365 150.249C24.2623 148.094 26.9462 146.629 28.4689 146.257C29.0783 146.118 29.7102 146.123 30.3175 146.271C30.9248 146.419 31.4918 146.706 31.9764 147.111L32.9066 147.887C26.8218 155.005 27.1536 167.385 28.1312 180.278Z" fill="#263238"/>
<path d="M37.2791 151.94C37.2257 151.478 37.0605 151.038 36.7985 150.659C36.5366 150.28 36.1863 149.976 35.7801 149.773C35.0527 149.357 34.3627 148.875 33.7182 148.332C27.9178 144.822 24.1022 151.586 23.9363 156.427C23.7704 161.268 18.8054 164.326 17.7686 169.247C17.0457 172.69 17.5434 177.329 22.1292 179.551C26.1344 181.499 28.688 181.45 30.424 179.332C30.7468 178.84 30.9294 178.265 30.9513 177.671C31.0412 176.881 31.0689 176.085 31.0343 175.29C31.0343 174.43 30.9454 173.569 30.8565 172.72C30.8269 172.458 30.8091 172.195 30.7677 171.939C30.6729 171.359 31.1468 170.816 31.4668 170.37C32.2568 169.259 33.0467 168.14 33.8367 167.012C33.9789 166.805 34.2159 166.457 34.133 166.219L33.813 166.017C33.1561 165.638 32.5455 165.179 31.9941 164.65C31.5567 164.251 31.2745 163.702 31.2002 163.106C31.2046 162.529 31.2843 161.957 31.4372 161.402C31.609 160.597 31.6386 159.663 31.0935 159.058C30.8802 158.826 30.6077 158.667 30.3766 158.448C30.2531 158.352 30.154 158.228 30.0879 158.084C30.0219 157.94 29.9908 157.782 29.9974 157.624C30.0849 157.33 30.264 157.075 30.507 156.897C31.0943 156.352 31.6174 155.737 32.0652 155.066C32.5096 154.419 32.8769 153.71 33.345 153.082C33.7863 152.422 34.4037 151.909 35.1224 151.604C35.4783 151.457 35.8659 151.411 36.2451 151.47C36.6243 151.529 36.9813 151.691 37.2791 151.94Z" fill="#37474F"/>
<path d="M115.031 118.89C106.778 116.985 92.0424 113.316 92.0424 113.316L88.3039 101.717C78.522 105.051 66.8619 101.717 59.9357 96.0585L58.6086 101.333C58.6086 101.333 54.4612 108.658 52.7963 112.797C50.7048 117.937 49.905 126.228 50.9477 138.98C51.5758 146.678 53.1577 158.057 53.1577 158.057L40.6207 153.485C39.4002 153.753 36.9947 155.493 35.952 159.589C34.1034 166.915 37.0599 169.064 37.0599 169.064C37.0599 169.064 41.4739 171.377 50.8115 177.116C60.3386 182.958 65.4458 183.666 69.5517 181.731C72.4727 180.351 75.8913 175.919 75.8854 164.888C75.8854 155.768 76.5786 139.096 76.5786 139.096L97.6592 141.233C97.6592 141.233 95.544 148.229 94.8271 151.391C94.1102 154.553 93.3637 159.528 92.3268 164.516C92.3268 164.516 98.3228 169.07 105.219 167.989C105.219 167.989 120.784 141.825 122.929 134.225C125.073 126.624 123.023 120.739 115.031 118.89Z" fill="#455A64"/>
<path d="M76.5786 139.09V135.952C80.5989 134.997 84.2358 132.789 86.9945 129.628C86.9945 129.628 86.6271 135.616 78.9959 137.826L88.849 140.341L76.5786 139.09Z" fill="#37474F"/>
<path d="M97.6592 141.233C99.114 137.167 101.921 133.765 105.581 131.63C105.581 131.63 98.5657 132.851 95.4137 141.007L97.6592 141.233Z" fill="#37474F"/>
<path d="M53.1577 158.033C53.288 162.916 54.082 167.8 55.5276 169.631C53.7137 167.85 52.3491 165.639 51.5521 163.191C50.8356 161.179 50.4007 159.072 50.2604 156.934L53.1577 158.033Z" fill="#37474F"/>
<path d="M109.959 101.369C109.959 101.369 105.664 82.7747 103.442 74.1916C101.072 64.9919 98.1569 63.8443 91.9062 62.2632L88.9023 82.9274C88.9023 82.9274 98.9745 110.594 101.653 114.806C104.716 119.689 108.91 120.257 112.43 116.314C116.216 112.071 118.947 107.834 122.502 103.353C124.096 101.333 124.937 99.6357 128.036 97.0412C129.736 95.6189 133.961 93.3785 134.316 91.0221C134.607 89.032 130.998 87.3105 129.227 86.468C128.363 86.0723 127.438 85.8387 126.495 85.7782C125.796 85.7233 124.262 85.4974 123.64 85.8576C123.018 86.2177 122.721 87.5119 122.425 88.098C122.041 88.8999 121.565 89.6519 121.009 90.3384C117.679 94.2698 109.959 101.369 109.959 101.369Z" fill="#FFA8A7"/>
<path d="M109.959 101.369L103.211 105.753L109.509 99.4282L109.959 101.369Z" fill="#F28F8F"/>
<path d="M93.0556 62.5685C95.7751 63.0935 97.517 63.4537 99.7269 65.6574C101.937 67.8612 103.015 71.3775 104.04 74.9609C105.065 78.5443 109.147 96.5041 109.147 96.5041C109.147 96.5041 105.279 102.096 95.9943 102.609C95.9943 102.609 89.3111 86.3643 88.3868 83.8858C87.4625 81.4074 86.8345 64.4304 93.0556 62.5685Z" fill="#EBEBEB"/>
<path d="M71.3529 58.7407L61.0259 57.9166C61.0259 57.9166 58.4605 77.5552 54.4553 78.3488C48.9333 97.2732 49.7687 118.059 49.7687 118.059C49.7687 118.059 58.9581 123.352 74.7952 122.223C88.6771 121.228 92.0425 113.316 92.0425 113.316C92.0425 113.316 90.265 104.709 90.2058 101.974C90.0221 94.6482 93.8021 83.1287 94.3531 78.3488C95.6388 67.3605 91.9121 62.2631 91.9121 62.2631L83.6529 59.9311L71.3529 58.7407Z" fill="#EBEBEB"/>
<path d="M84.1624 60.3647C88.0431 63.9359 87.267 69.1432 86.7634 71.6277C86.2597 74.1123 86.4375 78.6298 86.4375 82.1277C86.4375 85.6257 86.3368 105.936 86.5678 111.515C86.6839 114.546 86.9727 117.567 87.4329 120.562C87.4329 120.562 92.8185 118.902 94.0509 113.347C93.8435 112.736 92.4157 100.68 92.7475 94.4224C93.0792 88.1652 94.9693 82.5672 95.6328 76.1696C96.2964 69.7719 94.282 64.2534 93.0555 62.5807C90.5908 61.1156 84.2157 59.913 84.2157 59.913L84.1624 60.3647Z" fill="#92E3A9"/>
<path opacity="0.3" d="M84.1624 60.3647C88.0431 63.9359 87.267 69.1432 86.7634 71.6277C86.2597 74.1123 86.4375 78.6298 86.4375 82.1277C86.4375 85.6257 86.3368 105.936 86.5678 111.515C86.6839 114.546 86.9727 117.567 87.4329 120.562C87.4329 120.562 92.8185 118.902 94.0509 113.347C93.8435 112.736 92.4157 100.68 92.7475 94.4224C93.0792 88.1652 94.9693 82.5672 95.6328 76.1696C96.2964 69.7719 94.282 64.2534 93.0555 62.5807C90.5908 61.1156 84.2157 59.913 84.2157 59.913L84.1624 60.3647Z" fill="#92E3A9"/>
<path d="M68.3845 26.5512C69.528 25.5317 71.3469 24.9396 72.5734 26.2643C72.7593 26.4842 72.9022 26.7392 72.994 27.0152C73.0592 27.1861 73.1125 27.357 73.1599 27.5279C73.5569 28.9808 73.1599 30.2384 73.0829 31.673C73.0474 32.8939 73.0079 34.1148 72.9644 35.3358C72.9111 36.8863 72.8637 38.4369 72.8104 39.9875H73.7406L73.3317 46.5561L72.7867 51.9953C72.7867 51.9953 72.3067 51.8854 72.2653 51.8732C70.95 51.4581 70.1679 50.2494 69.6761 48.9918C69.0125 47.2886 68.106 45.6831 67.5017 43.925C66.8862 42.1303 66.3893 40.2947 66.0146 38.4308C65.5406 36.0256 65.274 33.5471 65.819 31.1053C66.1907 29.3589 67.0787 27.7742 68.3608 26.5695L68.3845 26.5512Z" fill="#263238"/>
<path d="M100.817 27.9979C100.89 27.9737 100.969 27.9737 101.042 27.9979C101.127 28.0435 101.197 28.1135 101.244 28.1994C101.963 29.3968 102.291 30.8004 102.18 32.204C102.132 33.2758 101.806 34.3149 101.238 35.2136C100.661 36.112 99.7691 36.7462 98.7493 36.984C98.4533 37.0726 98.1388 37.0726 97.8428 36.984C97.5271 36.8441 97.2575 36.613 97.0666 36.3186C96.7093 35.8152 96.4036 35.2751 96.1542 34.7069C95.698 33.7241 95.301 32.6069 95.6269 31.5692C95.6731 31.3938 95.763 31.2338 95.8876 31.1052C96.0085 31.0021 96.1472 30.9234 96.2964 30.8732C96.8962 30.5558 97.4777 30.2031 98.0383 29.8171C98.5597 29.5241 99.0692 29.2067 99.5729 28.8709C100.076 28.5352 100.284 28.1078 100.817 27.9979Z" fill="#263238"/>
<path d="M73.788 41.0984C73.0592 41.4281 72.2593 39.963 71.5306 38.9557C70.8018 37.9485 68.2305 36.3613 66.5123 39.1389C64.794 41.9165 66.5834 46.031 68.3845 47.4473C69.0148 47.9613 69.8011 48.2291 70.6046 48.2034C71.408 48.1777 72.1767 47.8601 72.7748 47.3068L71.0507 61.0484C71.9752 62.8648 73.2514 64.4666 74.8004 65.7549C76.3493 67.0432 78.1382 67.9907 80.0564 68.5387C86.5027 70.2969 85.8272 64.5524 84.0024 61.5428L84.5001 57.3612C84.5001 57.3612 87.7884 58.3135 89.4592 58.2647C92.2261 58.1853 94.6908 57.8434 96.1424 53.3016C97.5584 48.8941 98.5834 44.7551 99.0219 34.5543C99.4781 23.9017 86.5382 22.6686 79.6299 26.0078C72.7215 29.347 73.788 41.0984 73.788 41.0984Z" fill="#FFA8A7"/>
<path d="M71.3529 58.7409C72.5562 62.3117 74.2309 65.6949 76.3297 68.7952C78.4804 71.7559 78.6997 72.6716 78.3145 75.2905C77.9294 77.9094 74.493 98.4881 73.3021 107.743C72.5729 113.614 72.2146 119.527 72.2297 125.446C72.2297 125.446 63.2003 125.495 56.1616 124.17C49.1228 122.846 47.1913 120.306 47.1913 120.306C47.1913 120.306 48.6489 99.9288 50.2604 89.2091C51.872 78.4893 61.0199 57.9351 61.0199 57.9351L71.3529 58.7409Z" fill="#92E3A9"/>
<path opacity="0.3" d="M71.3529 58.7409C72.5562 62.3117 74.2309 65.6949 76.3297 68.7952C78.4804 71.7559 78.6997 72.6716 78.3145 75.2905C77.9294 77.9094 74.493 98.4881 73.3021 107.743C72.5729 113.614 72.2146 119.527 72.2297 125.446C72.2297 125.446 63.2003 125.495 56.1616 124.17C49.1228 122.846 47.1913 120.306 47.1913 120.306C47.1913 120.306 48.6489 99.9288 50.2604 89.2091C51.872 78.4893 61.0199 57.9351 61.0199 57.9351L71.3529 58.7409Z" fill="#92E3A9"/>
<path opacity="0.15" d="M54.2242 106.351C53.2525 112.248 52.3519 118.884 53.4954 119.854C55.6461 121.686 63.2655 122.382 65.9376 122.211C68.2779 122.058 69.0896 108.652 69.0896 108.652L54.2242 106.351Z" fill="#92E3A9"/>
<path d="M62.0094 105.533C57.2695 104.696 54.5619 104.239 54.2241 104.562C53.8864 104.886 54.7396 108.274 55.2077 109.135C55.6757 109.995 65.979 111.894 67.2351 111.18C68.4912 110.465 70.6063 107.248 69.5043 106.961C67.1699 106.351 63.7039 105.832 62.0094 105.533Z" fill="#92E3A9"/>
<path opacity="0.55" d="M62.0094 105.533C57.2695 104.696 54.5619 104.239 54.2241 104.562C53.8864 104.886 54.7396 108.274 55.2077 109.135C55.6757 109.995 65.979 111.894 67.2351 111.18C68.4912 110.465 70.6063 107.248 69.5043 106.961C67.1699 106.351 63.7039 105.832 62.0094 105.533Z" fill="#92E3A9"/>
<path opacity="0.15" d="M60.1727 77.4943C59.201 83.3913 58.3004 90.0271 59.4439 90.9977C61.5946 92.8291 69.2199 93.525 71.8861 93.3541C74.2264 93.2015 75.0381 79.8018 75.0381 79.8018L60.1727 77.4943Z" fill="#92E3A9"/>
<path d="M67.9579 76.6762C63.2181 75.8399 60.5104 75.382 60.1727 75.7056C59.835 76.0291 60.6882 79.4172 61.1562 80.284C61.6243 81.1509 71.9276 83.0372 73.1836 82.323C74.4397 81.6087 76.5549 78.3977 75.4529 78.1047C73.1244 77.4942 69.6524 76.9753 67.9579 76.6762Z" fill="#92E3A9"/>
<path opacity="0.55" d="M67.9579 76.6762C63.2181 75.8399 60.5104 75.382 60.1727 75.7056C59.835 76.0291 60.6882 79.4172 61.1562 80.284C61.6243 81.1509 71.9276 83.0372 73.1836 82.323C74.4397 81.6087 76.5549 78.3977 75.4529 78.1047C73.1244 77.4942 69.6524 76.9753 67.9579 76.6762Z" fill="#92E3A9"/>
<path d="M73.6458 42.2707C73.3081 42.2341 72.2772 39.8289 71.5307 38.9559C71.2932 38.4893 71.214 37.9542 71.3055 37.4359C71.3648 35.8975 71.8091 34.4446 71.7617 32.9062C71.7143 31.3679 71.1041 30.0309 70.719 28.633C70.2423 27.1543 70.2011 25.5634 70.6005 24.0606C71.1626 22.4453 72.2942 21.1072 73.7702 20.3124C75.2438 19.5299 76.8565 19.0647 78.5101 18.9449C82.065 18.5787 85.6199 19.1281 89.1748 19.2502C92.7297 19.3723 96.4505 19.0182 99.4544 17.0586C99.6914 16.906 99.9936 16.7473 100.225 16.906C100.299 16.9669 100.36 17.044 100.402 17.1319C101.226 18.6763 100.225 20.5504 100.171 22.3147C101.374 22.6074 102.64 22.4336 103.726 21.8263C104.568 22.6688 104.419 24.0911 104.105 25.2632C103.627 27.2493 102.613 29.0549 101.179 30.4705C99.8099 31.7524 97.5052 31.4472 95.9884 30.617C95.8967 30.5591 95.7933 30.5236 95.6862 30.5132C95.5139 30.5427 95.358 30.6361 95.2478 30.7757C93.654 32.3751 91.1656 32.6071 88.9852 32.1615C86.8049 31.7158 84.7727 30.7024 82.6279 30.0981C81.8066 29.8235 80.9355 29.7442 80.0802 29.8661C79.0315 30.0737 78.6464 30.7024 78.0124 31.5266C77.7017 31.9036 77.4297 32.3127 77.2007 32.7475C76.9965 33.2069 76.8415 33.688 76.7386 34.1821C76.4483 35.2321 75.4648 42.4661 73.6458 42.2707Z" fill="#263238"/>
<path d="M84.5178 57.3368C84.5178 57.3368 78.5929 55.2918 76.62 53.8572C75.4531 53.0263 74.5569 51.8518 74.0486 50.4874C74.2138 51.8077 74.6349 53.0803 75.2869 54.2296C76.5903 56.4761 84.3163 59.0034 84.3163 59.0034L84.5178 57.3368Z" fill="#F28F8F"/>
<path d="M86.2242 40.8055C86.1852 41.05 86.0774 41.2772 85.914 41.4591C85.7507 41.6409 85.5391 41.7692 85.3055 41.8281C85.072 41.887 84.8268 41.8739 84.6004 41.7903C84.374 41.7068 84.1765 41.5565 84.0323 41.3582C83.8882 41.1599 83.8038 40.9223 83.7897 40.675C83.7755 40.4277 83.8323 40.1815 83.9528 39.9672C84.0734 39.7528 84.2524 39.5797 84.4677 39.4693C84.683 39.359 84.925 39.3162 85.1637 39.3465C85.3267 39.3697 85.4836 39.4259 85.6253 39.512C85.7671 39.5981 85.8908 39.7122 85.9895 39.8479C86.0881 39.9836 86.1596 40.1381 86.1999 40.3025C86.2402 40.4668 86.2485 40.6378 86.2242 40.8055Z" fill="#263238"/>
<path d="M84.66 34.652L81.8813 35.7997C81.7396 35.4081 81.7505 34.9751 81.9118 34.5916C82.0731 34.2081 82.3721 33.9038 82.7463 33.7424C82.9295 33.6679 83.1255 33.6325 83.3224 33.6382C83.5193 33.6439 83.713 33.6907 83.8919 33.7757C84.0708 33.8607 84.231 33.9822 84.3631 34.1328C84.4951 34.2834 84.5961 34.46 84.66 34.652Z" fill="#263238"/>
<path d="M84.506 48.9429L87.4329 50.524C87.3406 50.7283 87.2092 50.9114 87.0466 51.0621C86.884 51.2129 86.6935 51.3282 86.4865 51.4012C86.2796 51.4742 86.0604 51.5033 85.8423 51.4868C85.6241 51.4704 85.4114 51.4086 85.217 51.3054C84.8248 51.0829 84.5317 50.7124 84.3991 50.2718C84.2665 49.8313 84.3048 49.3549 84.506 48.9429Z" fill="#F28F8F"/>
<path d="M97.44 37.5394L95.2892 35.3479C95.4203 35.1962 95.5801 35.0738 95.7587 34.9881C95.9374 34.9025 96.1311 34.8553 96.3281 34.8496C96.5251 34.8439 96.7211 34.8797 96.9042 34.9549C97.0872 35.0301 97.2534 35.143 97.3926 35.2868C97.6791 35.5845 97.8438 35.9842 97.8526 36.4034C97.8614 36.8225 97.7137 37.2292 97.44 37.5394Z" fill="#263238"/>
<path d="M96.1187 41.538C96.0784 41.7822 95.9695 42.0088 95.8053 42.1897C95.641 42.3706 95.4289 42.4978 95.1951 42.5555C94.9613 42.6131 94.7162 42.5987 94.4903 42.5141C94.2644 42.4294 94.0677 42.2782 93.9245 42.0793C93.7813 41.8804 93.698 41.6425 93.6849 41.3951C93.6719 41.1478 93.7296 40.902 93.851 40.6883C93.9725 40.4745 94.1522 40.3022 94.3678 40.1928C94.5835 40.0834 94.8256 40.0417 95.0641 40.0729C95.2268 40.0976 95.3832 40.155 95.5243 40.2421C95.6654 40.3291 95.7885 40.4439 95.8864 40.58C95.9844 40.7161 96.0553 40.8708 96.0952 41.0352C96.1351 41.1996 96.143 41.3705 96.1187 41.538Z" fill="#263238"/>
<path d="M90.0043 39.9691L89.4888 47.5572L94.1043 46.5743L90.0043 39.9691Z" fill="#F28F8F"/>
<path d="M89.3644 81.2669C88.9141 84.7832 89.1333 92.7497 89.6962 93.6105C90.2591 94.4712 93.6777 93.5677 94.051 92.182C94.4242 90.7962 95.8284 81.682 95.2004 81.2669C94.5723 80.8518 89.3644 81.2669 89.3644 81.2669Z" fill="#92E3A9"/>
<path opacity="0.4" d="M89.3644 81.2669C88.9141 84.7832 89.1333 92.7497 89.6962 93.6105C90.2591 94.4712 93.6777 93.5677 94.051 92.182C94.4242 90.7962 95.8284 81.682 95.2004 81.2669C94.5723 80.8518 89.3644 81.2669 89.3644 81.2669Z" fill="#92E3A9"/>
<path d="M89.3644 80.7847C90.3183 81.267 90.1228 82.6771 90.9048 83.5013C91.2959 84.0507 95.0108 84.0507 95.5084 83.6661C95.5914 83.2021 95.7277 81.4379 95.3603 80.9068C94.6967 80.4062 89.3644 79.985 89.3644 80.7847Z" fill="#92E3A9"/>
<path opacity="0.55" d="M89.3644 80.7847C90.3183 81.267 90.1228 82.6771 90.9048 83.5013C91.2959 84.0507 95.0108 84.0507 95.5084 83.6661C95.5914 83.2021 95.7277 81.4379 95.3603 80.9068C94.6967 80.4062 89.3644 79.985 89.3644 80.7847Z" fill="#92E3A9"/>
<path d="M87.8713 100.557C87.9187 104.11 89.2518 111.961 89.9273 112.724C90.6027 113.487 93.8614 112.114 94.0332 110.667C94.205 109.22 94.3353 100.014 93.6481 99.6784C92.9608 99.3427 87.8713 100.557 87.8713 100.557Z" fill="#92E3A9"/>
<path opacity="0.4" d="M87.8713 100.557C87.9187 104.11 89.2518 111.961 89.9273 112.724C90.6027 113.487 93.8614 112.114 94.0332 110.667C94.205 109.22 94.3353 100.014 93.6481 99.6784C92.9608 99.3427 87.8713 100.557 87.8713 100.557Z" fill="#92E3A9"/>
<path d="M87.8061 100.088C88.8134 100.417 88.8193 101.84 89.708 102.529C90.1761 103.018 93.8554 102.468 94.2879 102.01C94.2879 101.54 94.1931 99.7701 93.7547 99.3C93.02 98.9215 87.6699 99.3 87.8061 100.088Z" fill="#92E3A9"/>
<path opacity="0.55" d="M87.8061 100.088C88.8134 100.417 88.8193 101.84 89.708 102.529C90.1761 103.018 93.8554 102.468 94.2879 102.01C94.2879 101.54 94.1931 99.7701 93.7547 99.3C93.02 98.9215 87.6699 99.3 87.8061 100.088Z" fill="#92E3A9"/>
<path d="M109.147 94.807C108.525 95.0116 107.868 95.0793 107.219 95.0057C106.57 94.9321 105.943 94.7188 105.379 94.3797L101.89 91.9867C101.313 91.5423 100.845 90.9643 100.525 90.2994C100.205 89.6345 100.041 88.9013 100.047 88.1591L100.669 78.0742C100.689 77.8093 100.737 77.5473 100.811 77.2928C100.836 77.2038 100.866 77.1162 100.9 77.0303C100.9 77.0303 100.959 76.8716 100.995 76.7923C101.03 76.7129 101.09 76.5908 101.143 76.4931L101.25 76.2856L101.374 76.0841L101.404 76.0353L108.916 81.1448C108.504 81.7544 108.249 82.4626 108.176 83.2021L107.583 93.287C107.453 94.4957 108.152 95.1122 109.147 94.807Z" fill="#92E3A9"/>
<path opacity="0.45" d="M109.147 94.807C108.525 95.0116 107.868 95.0793 107.219 95.0057C106.57 94.9321 105.943 94.7188 105.379 94.3797L101.89 91.9867C101.313 91.5423 100.845 90.9643 100.525 90.2994C100.205 89.6345 100.041 88.9013 100.047 88.1591L100.669 78.0742C100.689 77.8093 100.737 77.5473 100.811 77.2928C100.836 77.2038 100.866 77.1162 100.9 77.0303C100.9 77.0303 100.959 76.8716 100.995 76.7923C101.03 76.7129 101.09 76.5908 101.143 76.4931L101.25 76.2856L101.374 76.0841L101.404 76.0353L108.916 81.1448C108.504 81.7544 108.249 82.4626 108.176 83.2021L107.583 93.287C107.453 94.4957 108.152 95.1122 109.147 94.807Z" fill="#92E3A9"/>
<path d="M128.468 68.0627L124.979 65.6636C124.357 65.2846 123.657 65.0627 122.936 65.016C122.215 64.9693 121.494 65.0992 120.831 65.395L119.581 66.0604C119.353 66.182 119.106 66.2645 118.852 66.3046L118.965 66.3778L123.017 69.1616L123.089 69.2104C123.278 69.3729 123.423 69.5833 123.509 69.8209C123.646 70.159 123.849 70.4645 124.106 70.7183C124.362 70.972 124.667 71.1686 125 71.2958C125.334 71.4229 125.689 71.4779 126.044 71.4573C126.399 71.4367 126.747 71.341 127.064 71.1761L128.314 70.529C129.446 69.949 130.311 70.4802 130.317 71.7072C130.293 70.9959 130.115 70.2992 129.795 69.6684C129.475 69.0377 129.021 68.489 128.468 68.0627Z" fill="#92E3A9"/>
<path opacity="0.15" d="M128.468 68.0627L124.979 65.6636C124.357 65.2846 123.657 65.0627 122.936 65.016C122.215 64.9693 121.494 65.0992 120.831 65.395L119.581 66.0604C119.353 66.182 119.106 66.2645 118.852 66.3046L118.965 66.3778L123.017 69.1616L123.089 69.2104C123.278 69.3729 123.423 69.5833 123.509 69.8209C123.646 70.159 123.849 70.4645 124.106 70.7183C124.362 70.972 124.667 71.1686 125 71.2958C125.334 71.4229 125.689 71.4779 126.044 71.4573C126.399 71.4367 126.747 71.341 127.064 71.1761L128.314 70.529C129.446 69.949 130.311 70.4802 130.317 71.7072C130.293 70.9959 130.115 70.2992 129.795 69.6684C129.475 69.0377 129.021 68.489 128.468 68.0627Z" fill="#92E3A9"/>
<path d="M125.648 69.1126L125.707 68.1053L124.967 68.0565C124.487 67.7784 123.952 67.6153 123.402 67.5794C122.852 67.5434 122.301 67.6356 121.791 67.8489L121.044 67.8001L120.985 68.8074C120.99 69.0173 121.046 69.2226 121.15 69.4033C121.254 69.584 121.401 69.7341 121.578 69.839C122.072 70.1384 122.628 70.3136 123.2 70.3508C123.772 70.3879 124.345 70.2858 124.872 70.0527C125.071 69.9812 125.247 69.8564 125.384 69.6911C125.52 69.5259 125.611 69.3262 125.648 69.1126Z" fill="#263238"/>
<path d="M121.791 66.8418C120.843 67.324 120.79 68.2031 121.667 68.8013C122.161 69.1031 122.718 69.2803 123.291 69.3184C123.865 69.3566 124.439 69.2548 124.967 69.0211C125.909 68.5388 125.968 67.6598 125.085 67.0554C124.591 66.7561 124.035 66.5808 123.463 66.5437C122.891 66.5066 122.318 66.6087 121.791 66.8418Z" fill="#37474F"/>
<path d="M130.281 71.9024L129.653 81.9872C129.567 82.7235 129.314 83.4286 128.914 84.0457C128.515 84.6628 127.981 85.1747 127.354 85.5401L109.509 94.6482L109.349 94.7215L109.23 94.7703L109.136 94.8008C108.14 95.1122 107.435 94.4956 107.512 93.2869L108.105 83.2021C108.178 82.4608 108.433 81.7509 108.845 81.1387C109.137 80.6694 109.506 80.2562 109.935 79.9178L110.143 79.7712L110.356 79.6492H110.386L110.469 79.6064L113.046 78.3061C114.063 77.7769 114.954 77.0216 115.654 76.0947C116.354 75.1678 116.845 74.0925 117.093 72.9463C117.177 72.5766 117.332 72.228 117.549 71.9207C117.747 71.6103 118.015 71.3546 118.331 71.1759L122.224 69.1919C122.341 69.1229 122.474 69.0865 122.609 69.0865C122.744 69.0865 122.876 69.1229 122.994 69.1919L123.065 69.2408C123.256 69.4031 123.403 69.6134 123.491 69.8512C123.628 70.1893 123.832 70.4948 124.088 70.7487C124.344 71.0026 124.649 71.1995 124.982 71.3272C125.315 71.4548 125.671 71.5105 126.026 71.4908C126.381 71.4711 126.728 71.3764 127.046 71.2126L128.297 70.5594C129.428 69.9855 130.293 70.5044 130.299 71.7376C130.281 71.7864 130.281 71.8413 130.281 71.9024Z" fill="#92E3A9"/>
<path opacity="0.3" d="M130.281 71.9024L129.653 81.9872C129.567 82.7235 129.314 83.4286 128.914 84.0457C128.515 84.6628 127.981 85.1747 127.354 85.5401L109.509 94.6482L109.349 94.7215L109.23 94.7703L109.136 94.8008C108.14 95.1122 107.435 94.4956 107.512 93.2869L108.105 83.2021C108.178 82.4608 108.433 81.7509 108.845 81.1387C109.137 80.6694 109.506 80.2562 109.935 79.9178L110.143 79.7712L110.356 79.6492H110.386L110.469 79.6064L113.046 78.3061C114.063 77.7769 114.954 77.0216 115.654 76.0947C116.354 75.1678 116.845 74.0925 117.093 72.9463C117.177 72.5766 117.332 72.228 117.549 71.9207C117.747 71.6103 118.015 71.3546 118.331 71.1759L122.224 69.1919C122.341 69.1229 122.474 69.0865 122.609 69.0865C122.744 69.0865 122.876 69.1229 122.994 69.1919L123.065 69.2408C123.256 69.4031 123.403 69.6134 123.491 69.8512C123.628 70.1893 123.832 70.4948 124.088 70.7487C124.344 71.0026 124.649 71.1995 124.982 71.3272C125.315 71.4548 125.671 71.5105 126.026 71.4908C126.381 71.4711 126.728 71.3764 127.046 71.2126L128.297 70.5594C129.428 69.9855 130.293 70.5044 130.299 71.7376C130.281 71.7864 130.281 71.8413 130.281 71.9024Z" fill="#92E3A9"/>
<path d="M113.526 69.1431L110.072 66.7745C109.861 67.0847 109.709 67.4325 109.621 67.8001C109.381 68.9474 108.896 70.0253 108.203 70.9564C107.509 71.8874 106.624 72.6484 105.61 73.1844L102.903 74.5579C102.3 74.9103 101.789 75.4091 101.416 76.0108L108.916 81.1448C109.283 80.5315 109.792 80.0218 110.398 79.6614C110.398 79.6614 113.07 78.3062 113.087 78.3001C114.096 77.7665 114.979 77.01 115.671 76.0845C116.363 75.1591 116.849 74.0875 117.093 72.9463C117.18 72.5776 117.335 72.2295 117.549 71.9207L113.526 69.1431Z" fill="#92E3A9"/>
<path opacity="0.15" d="M113.526 69.1431L110.072 66.7745C109.861 67.0847 109.709 67.4325 109.621 67.8001C109.381 68.9474 108.896 70.0253 108.203 70.9564C107.509 71.8874 106.624 72.6484 105.61 73.1844L102.903 74.5579C102.3 74.9103 101.789 75.4091 101.416 76.0108L108.916 81.1448C109.283 80.5315 109.792 80.0218 110.398 79.6614C110.398 79.6614 113.07 78.3062 113.087 78.3001C114.096 77.7665 114.979 77.01 115.671 76.0845C116.363 75.1591 116.849 74.0875 117.093 72.9463C117.18 72.5776 117.335 72.2295 117.549 71.9207L113.526 69.1431Z" fill="#92E3A9"/>
<path d="M118.941 66.3778L118.829 66.3045L115.582 64.0763L115.517 64.0336C115.399 63.9645 115.267 63.9282 115.132 63.9282C114.996 63.9282 114.864 63.9645 114.746 64.0336L110.854 66.0176C110.538 66.1993 110.269 66.4543 110.066 66.7624L113.52 69.131L117.543 71.8903C117.741 71.5815 118.009 71.3277 118.325 71.1516L122.218 69.1615C122.335 69.0924 122.468 69.0561 122.603 69.0561C122.738 69.0561 122.871 69.0924 122.988 69.1615L118.941 66.3778Z" fill="#92E3A9"/>
<path d="M106.286 75.2721C106.144 75.1916 105.986 75.1444 105.824 75.1339C105.662 75.1233 105.5 75.1497 105.35 75.2111H105.13V75.5041C105.131 75.5674 105.149 75.6292 105.181 75.683C105.213 75.7368 105.259 75.7805 105.314 75.8093C105.46 75.8978 105.623 75.95 105.792 75.9616C105.961 75.9733 106.13 75.9441 106.286 75.8765C106.343 75.8536 106.393 75.8156 106.432 75.7664C106.47 75.7171 106.496 75.6582 106.505 75.5957V75.3026L106.286 75.2721Z" fill="#263238"/>
<path d="M105.362 74.9242C105.083 75.0646 105.071 75.321 105.326 75.498C105.472 75.5865 105.635 75.6387 105.804 75.6503C105.973 75.662 106.142 75.6328 106.298 75.5652C106.358 75.5493 106.413 75.514 106.453 75.4643C106.493 75.4146 106.517 75.353 106.52 75.2886C106.524 75.2241 106.508 75.16 106.475 75.1055C106.441 75.051 106.392 75.0089 106.333 74.9853C106.187 74.8977 106.023 74.8467 105.854 74.8361C105.686 74.8255 105.517 74.8556 105.362 74.9242Z" fill="#37474F"/>
<path d="M108.111 74.7778V74.4847H107.891C107.75 74.4013 107.592 74.3524 107.43 74.3418C107.268 74.3312 107.105 74.3592 106.955 74.4237H106.736V74.7228C106.737 74.7852 106.755 74.846 106.787 74.8988C106.82 74.9515 106.865 74.9941 106.92 75.0219C107.065 75.1104 107.229 75.1626 107.398 75.1742C107.566 75.1859 107.735 75.1567 107.891 75.0891C107.953 75.0638 108.006 75.0212 108.045 74.9661C108.083 74.911 108.106 74.8457 108.111 74.7778Z" fill="#263238"/>
<path d="M106.973 74.0941C106.894 74.0892 106.817 74.1167 106.758 74.1705C106.699 74.2243 106.664 74.3 106.659 74.381C106.654 74.4619 106.681 74.5415 106.733 74.6022C106.785 74.6628 106.859 74.6997 106.938 74.7045C107.084 74.792 107.248 74.8431 107.416 74.8537C107.585 74.8643 107.754 74.8341 107.909 74.7656C107.968 74.7482 108.02 74.7126 108.058 74.6635C108.097 74.6145 108.119 74.5544 108.123 74.4916C108.127 74.4287 108.112 74.3662 108.08 74.3125C108.048 74.2588 108.001 74.2166 107.945 74.1917C107.801 74.0983 107.639 74.0408 107.47 74.0238C107.301 74.0069 107.131 74.0309 106.973 74.0941Z" fill="#37474F"/>
<path d="M107.797 76.3101C107.655 76.2283 107.497 76.1804 107.335 76.1698C107.173 76.1593 107.011 76.1863 106.86 76.249H106.641V76.5481C106.643 76.6111 106.661 76.6725 106.694 76.726C106.726 76.7796 106.771 76.8235 106.825 76.8534C106.97 76.9413 107.133 76.9926 107.301 77.0032C107.469 77.0138 107.636 76.9834 107.791 76.9144C107.848 76.8932 107.898 76.8564 107.937 76.8081C107.975 76.7597 108.001 76.7016 108.01 76.6397V76.3406L107.797 76.3101Z" fill="#263238"/>
<path d="M106.86 75.9559C106.582 76.1024 106.564 76.3589 106.825 76.5359C106.969 76.6252 107.132 76.6774 107.301 76.688C107.469 76.6987 107.637 76.6674 107.791 76.5969C107.85 76.5803 107.902 76.5453 107.941 76.4966C107.98 76.4479 108.004 76.388 108.008 76.3251C108.013 76.2622 107.998 76.1994 107.967 76.1453C107.935 76.0912 107.888 76.0485 107.832 76.0231C107.686 75.9346 107.523 75.8825 107.354 75.8708C107.185 75.8591 107.016 75.8883 106.86 75.9559Z" fill="#37474F"/>
<path d="M109.616 75.7911V75.4919H109.402C109.261 75.4102 109.103 75.3623 108.941 75.3517C108.779 75.3412 108.617 75.3682 108.466 75.4309H108.247V75.7239C108.249 75.7869 108.267 75.8482 108.299 75.9018C108.331 75.9554 108.377 75.9993 108.431 76.0292C108.576 76.1171 108.739 76.1684 108.906 76.179C109.074 76.1896 109.242 76.1592 109.396 76.0902C109.457 76.0678 109.51 76.0275 109.549 75.9744C109.588 75.9212 109.611 75.8575 109.616 75.7911Z" fill="#263238"/>
<path d="M108.484 75.1317C108.425 75.1491 108.373 75.1847 108.335 75.2338C108.296 75.2828 108.274 75.3429 108.27 75.4057C108.266 75.4686 108.281 75.5311 108.313 75.5848C108.345 75.6385 108.392 75.6807 108.448 75.7056C108.594 75.7945 108.758 75.8469 108.926 75.8586C109.095 75.8703 109.264 75.8409 109.42 75.7727C109.478 75.7539 109.53 75.7173 109.567 75.6677C109.605 75.6182 109.627 75.5581 109.631 75.4953C109.635 75.4325 109.62 75.37 109.589 75.316C109.557 75.262 109.511 75.219 109.456 75.1928C109.31 75.1034 109.146 75.0512 108.977 75.0406C108.808 75.03 108.639 75.0612 108.484 75.1317Z" fill="#37474F"/>
<path d="M111.5 78.0498V77.5919H111.168C110.951 77.4637 110.708 77.3883 110.459 77.3713C110.209 77.3544 109.959 77.3964 109.728 77.4942H109.39V77.9521C109.392 78.048 109.419 78.1416 109.468 78.2232C109.517 78.3048 109.586 78.3714 109.669 78.4161C109.892 78.5531 110.144 78.6334 110.404 78.6504C110.664 78.6674 110.923 78.6205 111.162 78.5137C111.255 78.4765 111.335 78.4134 111.395 78.3314C111.455 78.2494 111.491 78.1519 111.5 78.0498Z" fill="#263238"/>
<path d="M109.752 77.0303C109.661 77.0569 109.58 77.1118 109.521 77.1876C109.462 77.2634 109.427 77.3563 109.421 77.4534C109.415 77.5506 109.439 77.6472 109.488 77.73C109.538 77.8128 109.611 77.8776 109.698 77.9155C109.922 78.0525 110.174 78.1328 110.434 78.1498C110.693 78.1668 110.953 78.12 111.192 78.0132C111.618 77.7995 111.642 77.4027 111.245 77.128C111.021 76.9924 110.769 76.9129 110.51 76.8959C110.25 76.8789 109.991 76.925 109.752 77.0303Z" fill="#37474F"/>
<path d="M126.134 77.421L125.98 77.3173C125.091 76.7617 123.835 76.78 122.425 77.5065C119.463 79.0082 116.927 82.964 116.719 86.346C116.677 86.9085 116.717 87.4744 116.838 88.0248C116.967 88.6186 117.256 89.1626 117.673 89.5937C117.767 89.6874 117.868 89.7732 117.975 89.8501L118.052 89.905L121.382 92.1881C121.246 92.0859 121.119 91.9715 121.003 91.8463C120.651 91.4101 120.391 90.903 120.24 90.3574C120.089 89.8119 120.05 89.2399 120.126 88.678C120.334 85.3021 122.893 81.3524 125.838 79.8385C126.311 79.5508 126.837 79.368 127.383 79.3018C127.929 79.2356 128.482 79.2874 129.007 79.4539C129.15 79.5074 129.287 79.5749 129.416 79.6553L126.134 77.421Z" fill="#92E3A9"/>
<path opacity="0.15" d="M126.134 77.421L125.98 77.3173C125.091 76.7617 123.835 76.78 122.425 77.5065C119.463 79.0082 116.927 82.964 116.719 86.346C116.677 86.9085 116.717 87.4744 116.838 88.0248C116.967 88.6186 117.256 89.1626 117.673 89.5937C117.767 89.6874 117.868 89.7732 117.975 89.8501L118.052 89.905L121.382 92.1881C121.246 92.0859 121.119 91.9715 121.003 91.8463C120.651 91.4101 120.391 90.903 120.24 90.3574C120.089 89.8119 120.05 89.2399 120.126 88.678C120.334 85.3021 122.893 81.3524 125.838 79.8385C126.311 79.5508 126.837 79.368 127.383 79.3018C127.929 79.2356 128.482 79.2874 129.007 79.4539C129.15 79.5074 129.287 79.5749 129.416 79.6553L126.134 77.421Z" fill="#92E3A9"/>
<path d="M117.656 89.5937C117.748 89.6889 117.849 89.7748 117.958 89.8501L116.18 88.6292C115.303 88.0187 114.806 86.7978 114.912 85.119C115.12 81.7432 117.673 77.7935 120.618 76.2795C121.345 75.8781 122.163 75.6822 122.988 75.7118C123.459 75.7337 123.915 75.8855 124.309 76.1513L126.021 77.3234C125.133 76.7679 123.877 76.7862 122.467 77.5126C119.504 79.0144 116.968 82.9702 116.761 86.3522C116.719 86.9147 116.759 87.4806 116.879 88.0309C116.99 88.6168 117.259 89.1585 117.656 89.5937Z" fill="#92E3A9"/>
<path opacity="0.55" d="M117.656 89.5937C117.748 89.6889 117.849 89.7748 117.958 89.8501L116.18 88.6292C115.303 88.0187 114.806 86.7978 114.912 85.119C115.12 81.7432 117.673 77.7935 120.618 76.2795C121.345 75.8781 122.163 75.6822 122.988 75.7118C123.459 75.7337 123.915 75.8855 124.309 76.1513L126.021 77.3234C125.133 76.7679 123.877 76.7862 122.467 77.5126C119.504 79.0144 116.968 82.9702 116.761 86.3522C116.719 86.9147 116.759 87.4806 116.879 88.0309C116.99 88.6168 117.259 89.1585 117.656 89.5937Z" fill="#92E3A9"/>
<path d="M136.218 86.9871C136.011 90.3629 133.457 94.3126 130.512 95.8205C129.795 96.2218 128.988 96.4198 128.172 96.3943C127.706 96.3706 127.255 96.2211 126.863 95.9609L121.501 92.2981L121.424 92.2492C121.288 92.147 121.161 92.0326 121.045 91.9074C120.693 91.4712 120.433 90.9641 120.282 90.4185C120.131 89.873 120.092 89.301 120.168 88.7391C120.375 85.3632 122.935 81.4135 125.879 79.8996C126.353 79.6119 126.879 79.4291 127.425 79.3629C127.971 79.2967 128.524 79.3485 129.049 79.515C129.191 79.5685 129.328 79.636 129.458 79.7164L129.594 79.8141L134.926 83.4769C135.821 84.0507 136.325 85.2778 136.218 86.9871Z" fill="#92E3A9"/>
<path opacity="0.45" d="M136.218 86.9871C136.011 90.3629 133.457 94.3126 130.512 95.8205C129.795 96.2218 128.988 96.4198 128.172 96.3943C127.706 96.3706 127.255 96.2211 126.863 95.9609L121.501 92.2981L121.424 92.2492C121.288 92.147 121.161 92.0326 121.045 91.9074C120.693 91.4712 120.433 90.9641 120.282 90.4185C120.131 89.873 120.092 89.301 120.168 88.7391C120.375 85.3632 122.935 81.4135 125.879 79.8996C126.353 79.6119 126.879 79.4291 127.425 79.3629C127.971 79.2967 128.524 79.3485 129.049 79.515C129.191 79.5685 129.328 79.636 129.458 79.7164L129.594 79.8141L134.926 83.4769C135.821 84.0507 136.325 85.2778 136.218 86.9871Z" fill="#92E3A9"/>
<path d="M134.393 86.0958C134.47 86.9443 134.541 87.7868 134.565 88.6414C134.624 90.3141 134.423 92.2492 134.838 93.8792C134.838 93.9952 134.95 94.4896 135.152 94.2638C135.774 93.6533 136.123 92.3958 136.443 91.5838C137.103 89.9777 137.523 88.2775 137.687 86.5414C137.735 85.8394 137.604 85.1374 137.687 84.4536C137.719 84.0035 137.649 83.5519 137.483 83.1345C137.316 82.7171 137.057 82.3453 136.728 82.0484C136.038 81.4548 135.272 80.9618 134.452 80.5833C133.628 80.2048 132.896 79.6393 132.314 78.929C132.018 78.3669 131.629 77.8627 131.164 77.4394C130.697 77.1866 130.165 77.0886 129.641 77.1586C128.051 77.2531 126.505 77.7432 125.139 78.5871C124.852 78.7271 124.623 78.9672 124.493 79.2647C124.451 79.4312 124.454 79.6063 124.502 79.771C124.55 79.9357 124.641 80.0836 124.765 80.1987C125.019 80.4261 125.329 80.5781 125.66 80.6383C126.187 80.7641 126.733 80.7807 127.266 80.6871C127.337 80.66 127.414 80.6497 127.489 80.6571C127.565 80.6645 127.639 80.6894 127.704 80.7298C127.864 80.8641 127.793 81.1266 127.793 81.3403C127.821 81.5815 127.923 81.8072 128.084 81.9849C128.245 82.1626 128.456 82.2832 128.688 82.3292C129.147 82.4179 129.613 82.473 130.08 82.4941C130.552 82.6085 131.008 82.7849 131.437 83.0191C132.118 83.3076 132.756 83.694 133.333 84.1667C133.628 84.3968 133.874 84.6866 134.056 85.0183C134.239 85.3501 134.353 85.7167 134.393 86.0958Z" fill="#FFA8A7"/>
<path d="M134.233 82.3658C133.285 81.7126 131.928 81.7004 130.37 82.494C127.283 84.0873 124.552 88.2751 124.321 91.8707C124.208 93.6227 124.718 94.8925 125.63 95.5335C125.938 95.7532 128 97.0841 128.296 97.2855C129.244 97.9387 130.607 97.9509 132.165 97.1573C135.282 95.564 137.984 91.3762 138.209 87.805C138.315 86.0408 137.794 84.7527 136.87 84.1056C136.579 83.892 134.529 82.5672 134.233 82.3658Z" fill="#455A64"/>
<path d="M126.94 93.5618C126.721 97.133 129.067 98.7446 132.177 97.1574C135.288 95.5702 137.995 91.3763 138.221 87.8051C138.446 84.2339 136.094 82.6223 132.977 84.2156C129.861 85.8089 127.159 89.9905 126.94 93.5618Z" fill="#37474F"/>
<path d="M129.79 96.382C128.279 96.2843 128.231 94.4407 128.279 93.6471C128.468 90.5948 130.898 86.8221 133.576 85.4486C134.121 85.1438 134.732 84.9843 135.353 84.9846C136.858 85.0823 136.911 86.932 136.864 87.7195C136.674 90.7718 134.245 94.5445 131.567 95.918C131.021 96.2223 130.41 96.3817 129.79 96.382Z" fill="#263238"/>
<path d="M135.205 85.766C135.226 85.5101 135.226 85.2528 135.205 84.9968C134.636 85.0251 134.08 85.1814 133.576 85.4547C130.898 86.8282 128.468 90.5826 128.279 93.6532C128.261 93.9113 128.261 94.1704 128.279 94.4285C128.849 94.4007 129.405 94.2422 129.908 93.9645C132.616 92.591 135.015 88.8183 135.205 85.766Z" fill="#92E3A9"/>
<path opacity="0.3" d="M135.205 85.766C135.226 85.5101 135.226 85.2528 135.205 84.9968C134.636 85.0251 134.08 85.1814 133.576 85.4547C130.898 86.8282 128.468 90.5826 128.279 93.6532C128.261 93.9113 128.261 94.1704 128.279 94.4285C128.849 94.4007 129.405 94.2422 129.908 93.9645C132.616 92.591 135.015 88.8183 135.205 85.766Z" fill="#92E3A9"/>
<path d="M132.071 87.0907C133.167 85.8698 134.512 85.5463 134.689 86.0285C134.867 86.5108 133.937 91.0648 129.47 93.4884C130.981 92.2588 132.252 90.7444 133.214 89.0259C133.973 87.5425 133.439 86.2544 132.071 87.0907Z" fill="#E0E0E0"/>
<path d="M119.338 72.0918L122.004 70.7305C122.407 70.5229 122.715 70.7305 122.686 71.1456C122.654 71.3898 122.567 71.6229 122.431 71.8256C122.295 72.0283 122.114 72.1949 121.904 72.3116L119.243 73.6729C118.835 73.8744 118.532 73.6729 118.556 73.2517C118.59 73.009 118.678 72.7777 118.814 72.5764C118.95 72.375 119.129 72.2091 119.338 72.0918Z" fill="#92E3A9"/>
<path d="M110.208 91.2175L113.348 89.6181C113.828 89.3739 114.19 89.6181 114.154 90.1065C114.117 90.394 114.015 90.6685 113.855 90.9072C113.696 91.146 113.483 91.3424 113.236 91.48L110.101 93.0917C109.621 93.3359 109.26 93.0917 109.29 92.5972C109.325 92.3086 109.427 92.0329 109.587 91.793C109.747 91.5531 109.96 91.3558 110.208 91.2175Z" fill="#37474F"/>
<path opacity="0.15" d="M127.384 96.2173C127.007 95.3895 126.853 94.4721 126.94 93.5618C127.089 91.8807 127.612 90.2577 128.468 88.8185L116.399 80.5406C115.566 81.9185 115.057 83.478 114.912 85.0947C114.806 86.7674 115.303 87.9883 116.18 88.6049L117.958 89.8258L118.035 89.8807L121.359 92.1578L121.436 92.2066L124.748 94.4714C124.947 94.8655 125.233 95.2063 125.583 95.4665C125.861 95.6679 127.586 96.779 128.125 97.133C127.817 96.8865 127.564 96.5741 127.384 96.2173Z" fill="#92E3A9"/>
<path d="M112.311 82.1643L112.074 81.6454C111.721 81.0752 111.442 80.4594 111.245 79.8141C111.235 79.2724 111.112 78.7394 110.883 78.2513C110.643 77.9193 110.31 77.67 109.93 77.5361C109.549 77.4021 109.138 77.3897 108.751 77.5004C107.977 77.7413 107.28 78.1901 106.73 78.8007C106.392 79.1364 106.067 79.4966 105.723 79.8263C104.491 81.0045 103.276 82.2254 101.955 83.312C101.552 83.6416 101.143 83.9652 100.716 84.2765C100.669 84.3071 100.272 84.5268 100.272 84.5879C100.272 84.6489 100.402 82.3169 100.468 81.3768C98.9094 81.151 96.9719 84.2338 95.1352 87.3594C94.1683 88.7706 92.9644 89.9924 91.5803 90.9672C88.4698 92.9695 79.6181 97.6396 73.5155 99.5808C72.0343 94.4713 68.906 81.9385 67.6321 77.5248C68.118 67.8734 62.8271 59.6016 60.943 58.5638C51.3269 58.5638 49.7628 69.253 51.8957 78.9045C53.454 85.9553 57.3051 101.278 60.5105 109.232C62.0746 113.103 64.1128 115.16 65.3096 115.831C66.5064 116.503 69.8065 117.095 78.5753 112.529C83.2678 110.087 88.689 106.339 95.2834 101.882C98.5776 99.6541 101.036 97.8227 103.27 96.3149C106.44 94.1721 109.71 91.5899 111.63 88.1408C112.202 87.1315 112.603 86.0291 112.815 84.8809C112.923 83.9435 112.747 82.9946 112.311 82.1643Z" fill="#FFA8A7"/>
<path d="M61.7605 57.9717C61.7605 57.9717 56.209 56.995 53.5606 60.3648C52.1905 62.099 51.1962 64.115 50.6444 66.2776C50.0926 68.4402 49.996 70.6994 50.3611 72.9037C51.1373 77.531 53.916 94.2699 55.7468 99.8678C55.7468 99.8678 66.453 100.057 72.4667 93.8242L68.2779 76.1208C68.2779 76.1208 67.9283 68.4839 66.1449 64.29C63.4906 58.0633 61.7605 57.9717 61.7605 57.9717Z" fill="#EBEBEB"/>
<path d="M117.01 94.6056C118.195 93.5922 118.112 91.1443 117.555 89.7646C117.331 88.9971 117.28 88.1868 117.407 87.396C117.477 86.5617 117.655 85.7406 117.934 84.9542C117.974 84.7785 118.05 84.614 118.159 84.4726C118.268 84.3311 118.405 84.2162 118.562 84.1361C118.764 84.1019 118.972 84.1328 119.156 84.2246C119.341 84.3163 119.493 84.4645 119.593 84.6489C119.972 85.292 120.163 86.0337 120.144 86.7855C120.13 87.536 120.199 88.2858 120.351 89.0198C120.616 89.8094 121.036 90.5346 121.584 91.1504C121.803 91.4544 121.986 91.7844 122.129 92.1332C122.262 92.4938 122.464 92.8237 122.721 93.1038L123.314 93.4884C122.975 93.7236 122.587 93.8722 122.182 93.9219C121.734 93.8426 121.28 93.7997 120.825 93.7937C120.292 93.8364 119.759 93.9402 119.232 94.0134C118.704 94.0867 117.614 94.5201 117.01 94.6056Z" fill="#FFA8A7"/>
<path d="M216.452 4.78818C216.494 4.36025 216.43 3.92836 216.265 3.5332C216.1 3.13803 215.84 2.79261 215.51 2.52947C214.882 2.11435 212.263 0.649243 211.677 0.264651C211.09 -0.11994 210.166 -0.113836 209.182 0.472208L151.51 34.7802C150.507 35.4523 149.673 36.3589 149.075 37.426C148.477 38.4932 148.132 39.6909 148.068 40.9215V50.7316L137.059 62.5196C136.976 62.6091 136.913 62.7156 136.873 62.8322C136.833 62.9488 136.817 63.0727 136.826 63.196C136.836 63.3193 136.87 63.4392 136.928 63.5478C136.985 63.6563 137.065 63.7511 137.16 63.826C137.32 63.9542 140.626 65.8039 140.999 66.097C141.17 66.2252 141.381 66.2839 141.592 66.2618L148.056 65.4926V90.3323C148.017 90.7555 148.081 91.1819 148.243 91.5731C148.404 91.9642 148.658 92.3078 148.98 92.5727C149.608 93 152.239 94.4407 152.802 94.8314C153.365 95.2221 154.33 95.2404 155.332 94.6483L213.004 60.3403C214.004 59.6664 214.837 58.7593 215.434 57.6924C216.031 56.6255 216.376 55.4288 216.44 54.199L216.452 4.78818Z" fill="#92E3A9"/>
<path opacity="0.15" d="M216.452 4.78818C216.494 4.36025 216.43 3.92836 216.265 3.5332C216.1 3.13803 215.84 2.79261 215.51 2.52947C214.882 2.11435 212.263 0.649243 211.677 0.264651C211.09 -0.11994 210.166 -0.113836 209.182 0.472208L151.51 34.7802C150.507 35.4523 149.673 36.3589 149.075 37.426C148.477 38.4932 148.132 39.6909 148.068 40.9215V50.7316L137.059 62.5196C136.976 62.6091 136.913 62.7156 136.873 62.8322C136.833 62.9488 136.817 63.0727 136.826 63.196C136.836 63.3193 136.87 63.4392 136.928 63.5478C136.985 63.6563 137.065 63.7511 137.16 63.826C137.32 63.9542 140.626 65.8039 140.999 66.097C141.17 66.2252 141.381 66.2839 141.592 66.2618L148.056 65.4926V90.3323C148.017 90.7555 148.081 91.1819 148.243 91.5731C148.404 91.9642 148.658 92.3078 148.98 92.5727C149.608 93 152.239 94.4407 152.802 94.8314C153.365 95.2221 154.33 95.2404 155.332 94.6483L213.004 60.3403C214.004 59.6664 214.837 58.7593 215.434 57.6924C216.031 56.6255 216.376 55.4288 216.44 54.199L216.452 4.78818Z" fill="#92E3A9"/>
<path opacity="0.15" d="M216.452 4.78819C216.452 3.69546 153.815 40.2378 153.815 40.2378L149.075 37.4174C148.452 38.4768 148.103 39.6833 148.062 40.9215V50.7316L137.059 62.5196C136.976 62.6091 136.913 62.7157 136.873 62.8322C136.833 62.9488 136.817 63.0728 136.826 63.1961C136.836 63.3194 136.87 63.4392 136.928 63.5478C136.985 63.6563 137.065 63.7511 137.16 63.826C137.32 63.9542 140.626 65.8039 140.999 66.097C141.17 66.2252 141.381 66.2839 141.592 66.2618L148.056 65.4926V90.3323C148.017 90.7555 148.081 91.1819 148.243 91.5731C148.404 91.9642 148.658 92.3078 148.98 92.5727C149.608 93 152.239 94.4408 152.802 94.8314C153.365 95.2221 154.33 95.2405 155.332 94.6483L213.004 60.3403C214.004 59.6664 214.837 58.7593 215.434 57.6924C216.031 56.6255 216.376 55.4288 216.44 54.199L216.452 4.78819Z" fill="#92E3A9"/>
<path opacity="0.15" d="M148.068 50.7377L151.901 53.0025L147.937 57.2513L144.11 54.9743L148.068 50.7377Z" fill="#92E3A9"/>
<path opacity="0.15" d="M152.814 94.8314C152.251 94.4408 149.626 93 148.992 92.5727C148.67 92.3072 148.418 91.9633 148.258 91.5722C148.098 91.1811 148.034 90.755 148.074 90.3323V65.4926L146.788 65.6452L148.008 61.8909L151.901 65.0347V92.5971C151.863 93.0182 151.926 93.4426 152.085 93.8324C152.244 94.2222 152.494 94.5655 152.814 94.8314Z" fill="#92E3A9"/>
<path d="M216.452 4.78824C216.452 2.52342 214.912 1.60773 213.016 2.73709L155.343 37.0451C154.342 37.7179 153.508 38.6246 152.91 39.6917C152.312 40.7587 151.966 41.956 151.901 43.1863V53.0026L140.911 64.7906C140.79 64.9204 140.711 65.0855 140.684 65.2633C140.658 65.4412 140.686 65.623 140.764 65.784C140.841 65.945 140.965 66.0774 141.119 66.1629C141.273 66.2484 141.448 66.283 141.621 66.2618L151.919 65.0409V92.6033C151.919 94.8681 153.459 95.7838 155.361 94.6545L213.034 60.3465C214.034 59.6726 214.866 58.7655 215.463 57.6986C216.06 56.6317 216.405 55.4349 216.47 54.2052L216.452 4.78824Z" fill="#92E3A9"/>
<path d="M216.452 4.78814V54.199C216.388 55.4287 216.043 56.6255 215.446 57.6924C214.849 58.7593 214.016 59.6664 213.016 60.3403L155.343 94.6483C153.442 95.7776 151.901 94.8619 151.901 92.5971V43.1862C151.966 41.9559 152.311 40.7586 152.91 39.6916C153.508 38.6245 154.342 37.7178 155.343 37.045L213.016 2.74309C214.912 1.60763 216.452 2.52332 216.452 4.78814Z" fill="#92E3A9"/>
<path d="M186.467 41.941C186.467 41.941 183.386 37.5884 188.274 29.1823C193.162 20.7763 199.638 18.6152 199.638 18.6152C199.638 18.6152 204.727 29.6036 198.405 39.1085C192.083 48.6134 186.467 41.941 186.467 41.941Z" fill="#92E3A9"/>
<path opacity="0.1" d="M186.467 41.941C186.467 41.941 183.386 37.5884 188.274 29.1823C193.162 20.7763 199.638 18.6152 199.638 18.6152C199.638 18.6152 204.727 29.6036 198.405 39.1085C192.083 48.6134 186.467 41.941 186.467 41.941Z" fill="#92E3A9"/>
<path opacity="0.1" d="M198.381 39.1268C194.507 44.9445 190.904 44.682 188.694 43.6076C188.434 31.2213 199.638 18.6152 199.638 18.6152C199.638 18.6152 204.727 29.6463 198.381 39.1268Z" fill="#92E3A9"/>
<path d="M190.318 50.2738C190.318 50.2738 193.873 58.0205 200.094 56.2685C206.208 54.5531 210.486 45.5671 210.486 45.5671C210.486 45.5671 204.075 37.7593 196.989 40.5979C190.981 43.0337 190.318 50.2738 190.318 50.2738Z" fill="#92E3A9"/>
<path opacity="0.1" d="M190.318 50.2738C190.318 50.2738 193.873 58.0205 200.094 56.2685C206.208 54.5531 210.486 45.5671 210.486 45.5671C210.486 45.5671 204.075 37.7593 196.989 40.5979C190.981 43.0337 190.318 50.2738 190.318 50.2738Z" fill="#92E3A9"/>
<path opacity="0.1" d="M200.094 56.2684C206.208 54.553 210.486 45.567 210.486 45.567C202.061 42.8138 190.341 50.2737 190.341 50.2737C190.341 50.2737 193.879 58.0204 200.094 56.2684Z" fill="#92E3A9"/>
<path d="M162.886 51.861C162.842 52.5974 162.989 53.3325 163.312 53.9911C163.635 54.6497 164.121 55.2081 164.722 55.6092C164.551 55.5054 164.373 57.1354 164.379 57.2758C164.409 57.9094 164.626 58.5184 165.001 59.0217C165.842 60.0717 167.318 60.2731 168.473 60.2731C171.803 60.2731 176.033 58.106 178.628 55.5176C177.343 57.231 175.836 58.7551 174.149 60.0473C172.371 61.4147 170.102 62.1656 168.36 63.588C167.905 63.9233 167.574 64.4076 167.42 64.9618C167.266 65.5161 167.299 66.1077 167.513 66.6403C167.642 67.1143 167.935 67.5232 168.337 67.7897C168.739 68.0563 169.221 68.1621 169.693 68.0871C169.27 68.4544 168.93 68.9135 168.699 69.4316C168.467 69.9497 168.35 70.5141 168.354 71.0844C168.392 71.6314 168.592 72.153 168.929 72.5781C169.265 73.0031 169.72 73.3108 170.233 73.4591C170.726 73.555 171.233 73.5408 171.721 73.4176C172.208 73.2944 172.664 73.065 173.059 72.7449C173.911 72.0761 174.679 71.301 175.346 70.4373C175.314 70.7404 175.342 71.0468 175.425 71.3391C175.509 71.6313 175.648 71.9038 175.834 72.1407C176.02 72.3777 176.249 72.5746 176.509 72.7202C176.769 72.8657 177.054 72.9571 177.348 72.9891C178.45 73.0501 179.493 72.287 180.311 71.3713C182.959 68.4167 183.913 63.9298 184.737 59.7176C184.735 60.7374 184.939 61.7463 185.336 62.6805C185.733 63.6147 186.313 64.4538 187.041 65.1446C187.704 65.6869 188.479 66.0644 189.306 66.2475C190.133 66.4307 190.991 66.4147 191.811 66.2007C192.204 66.1072 192.568 65.9135 192.869 65.6372C193.17 65.3609 193.399 65.011 193.535 64.6196C193.695 64.1191 193.689 63.5513 193.896 63.0691C194.091 62.6309 194.434 62.2812 194.862 62.0862C195.94 61.5673 197.09 61.1583 197.392 59.5223C197.514 58.8612 197.402 58.1772 197.078 57.5932C198.189 56.6937 198.958 55.4213 199.252 53.9976C199.774 51.7816 198.66 50.463 196.847 50.2249C194.921 49.9685 193.037 50.6095 191.058 50.0296C193.767 49.8716 196.359 48.8425 198.47 47.0871C200.651 45.1581 202.861 43.2717 204.289 40.3721C204.795 39.4675 205.051 38.4371 205.029 37.393C204.94 36.3552 204.217 35.3602 203.352 35.4639C203.705 34.2646 203.768 32.9947 203.536 31.7645C203.252 30.5436 202.464 29.518 201.445 29.3227C200.927 29.2824 200.412 29.4232 199.982 29.7224C199.551 30.0215 199.232 30.4614 199.075 30.9709C199.094 30.659 199.048 30.3465 198.938 30.0549C198.829 29.7634 198.659 29.4999 198.441 29.2827C198.223 29.0655 197.961 28.8998 197.675 28.797C197.388 28.6943 197.084 28.657 196.782 28.6878C195.644 28.8831 194.72 30.0003 194.175 31.2456C193.693 32.5349 193.297 33.8565 192.99 35.2014C192.313 37.7534 190.985 40.072 189.145 41.9165C189.878 38.1615 189.272 34.2601 187.438 30.9282C187.034 30.1201 186.468 29.4088 185.779 28.8404C185.456 28.5734 185.07 28.3985 184.66 28.3332C184.251 28.2679 183.832 28.3143 183.445 28.468C183.033 28.6799 182.693 29.0159 182.471 29.4313C182.249 29.8467 182.155 30.3219 182.201 30.7939C180.737 29.0724 178.053 28.352 176.697 30.8366C176.394 31.4402 176.212 32.1002 176.161 32.7775C176.11 33.4549 176.192 34.1358 176.4 34.7802C176.228 34.243 175.02 35.0244 174.818 35.1953C174.269 35.7027 173.936 36.4139 173.894 37.1732C173.864 38.2146 174.184 39.2347 174.801 40.0607C175.39 40.8088 176.053 41.492 176.78 42.0997C178.725 43.7811 180.404 45.7644 181.756 47.9784C179.086 47.5314 176.569 46.3905 174.445 44.6636C173.713 44.0374 172.945 43.4564 172.146 42.9238C170.292 41.8005 167.507 41.9348 166.275 44.3523C165.94 45.0411 165.766 45.8009 165.766 46.5713C165.766 47.3417 165.94 48.1015 166.275 48.7903C165.798 48.625 165.281 48.6231 164.803 48.7848C164.325 48.9465 163.91 49.2632 163.62 49.6877C163.171 50.3206 162.915 51.0773 162.886 51.861Z" fill="#455A64"/>
<path d="M197.268 38.0705C196.681 39.4043 195.88 40.6261 194.898 41.6845C193.955 42.7377 192.909 43.687 191.775 44.517C190.738 45.2862 189.684 46.0371 188.6 46.7269C188.078 47.0627 187.539 47.374 186.994 47.6609C186.449 47.9478 186.004 48.1065 185.536 48.4057C185.536 48.1615 185.536 47.9112 185.536 47.667C185.536 47.1298 185.536 46.5926 185.536 46.0615C185.429 44.8597 185.198 43.6729 184.849 42.5208C184.493 41.2866 184.046 40.0825 183.51 38.9191C183.06 37.9179 182.544 36.4772 181.626 36.0011C181.525 35.9522 181.33 36.0011 181.395 36.1659C181.567 36.6909 181.792 37.1609 181.94 37.7043C182.088 38.2476 182.266 38.8397 182.456 39.3952C182.852 40.5734 183.226 41.7638 183.51 42.9909C183.798 44.1036 183.996 45.2388 184.103 46.385C184.138 46.9222 184.103 47.4717 184.103 48.0089C184.069 48.4303 184.083 48.8544 184.144 49.2725C183.989 49.3738 183.872 49.5267 183.812 49.706C183.777 49.7853 183.753 49.8647 183.723 49.944C183.575 50.0234 183.439 50.1211 183.321 50.1882C183.036 50.3469 182.728 50.5118 182.461 50.6644C181.869 50.9779 181.245 51.2235 180.601 51.3969C179.479 51.7045 178.325 51.8746 177.165 51.9036C176.067 51.8858 174.976 51.7132 173.924 51.3908C173.207 51.1955 172.502 50.9574 171.785 50.7437C171.209 50.6264 170.661 50.3919 170.173 50.0539C170.079 49.9746 169.966 50.0539 170.037 50.1882C170.259 50.5867 170.594 50.9061 170.997 51.1039C171.589 51.4519 172.229 51.7632 172.845 52.0868C174.04 52.7583 175.358 53.1639 176.714 53.2772C178.072 53.3729 179.436 53.2472 180.755 52.9048C181.442 52.7145 182.109 52.4548 182.746 52.1295L182.995 52.0013C182.793 52.6118 182.586 53.1734 182.343 53.7411C181.81 55.0231 181.229 56.2867 180.595 57.4955C179.185 60.1249 177.492 62.5823 175.547 64.821C175.411 64.9858 175.713 65.2728 175.849 65.1751C179.997 62.2876 182.93 57.0254 184.737 51.6839C185.488 52.9897 186.466 54.1423 187.622 55.0841C188.386 55.7327 189.217 56.2936 190.099 56.7568C190.549 56.9888 191.005 57.2085 191.467 57.3978C191.912 57.5457 192.346 57.7273 192.765 57.9411C192.883 58.0083 192.913 57.8556 192.848 57.758C192.431 57.1587 191.901 56.6522 191.289 56.2684C190.454 55.658 189.607 55.0475 188.813 54.3882C187.305 53.151 186.111 51.5546 185.335 49.7365C185.367 49.7543 185.401 49.7687 185.436 49.7792C186.052 49.776 186.655 49.5894 187.172 49.242C187.867 48.8903 188.54 48.4926 189.186 48.0516C190.358 47.2859 191.489 46.4565 192.575 45.567C193.704 44.6532 194.735 43.6177 195.65 42.4781C196.128 41.8674 196.549 41.2112 196.906 40.5185C197.21 39.8176 197.446 39.0876 197.611 38.3391C197.588 38.1499 197.339 37.8813 197.268 38.0705Z" fill="#37474F"/>
<path d="M185.347 47.6426C187.231 47.0321 188.374 48.1187 187.9 50.0844C187.581 51.1481 187.03 52.1226 186.289 52.9339C185.549 53.7453 184.639 54.3721 183.629 54.7667C181.745 55.3771 180.601 54.2905 181.075 52.3248C181.395 51.2612 181.946 50.2866 182.686 49.4753C183.426 48.664 184.336 48.0372 185.347 47.6426Z" fill="#F0997A"/>
<path opacity="0.05" d="M186.129 51.5802C184.695 53.6252 182.373 54.5776 181.152 54.138C181.537 54.895 182.426 55.1819 183.605 54.7912C184.616 54.3966 185.526 53.7698 186.266 52.9585C187.006 52.1472 187.557 51.1726 187.877 50.109C188.185 48.8209 187.794 47.9174 186.964 47.6122C187.338 48.4668 187.32 49.8648 186.129 51.5802Z" fill="#92E3A9"/>
<path d="M157.281 49.1384C157.225 49.1384 157.169 49.127 157.118 49.1049C157.066 49.0828 157.019 49.0505 156.979 49.0097C156.94 48.9688 156.908 48.9204 156.887 48.8671C156.865 48.8137 156.854 48.7566 156.854 48.6989V42.289C156.855 42.2123 156.875 42.1372 156.913 42.0709C156.95 42.0046 157.003 41.9494 157.068 41.9105L162.441 38.7117C162.507 38.6757 162.58 38.6569 162.655 38.6567C162.729 38.6565 162.803 38.6767 162.867 38.7153C162.932 38.754 162.985 38.8096 163.022 38.8765C163.053 38.9263 163.074 38.9822 163.084 39.0408C163.093 39.0994 163.09 39.1593 163.076 39.2167C163.061 39.2741 163.035 39.3278 162.999 39.3744C162.964 39.4209 162.919 39.4592 162.868 39.487L157.707 42.5393V48.6866C157.709 48.7454 157.699 48.8038 157.678 48.8586C157.658 48.9133 157.627 48.9632 157.587 49.0054C157.547 49.0475 157.499 49.0809 157.447 49.1038C157.394 49.1266 157.338 49.1384 157.281 49.1384Z" fill="#8F8F8F"/>
<path d="M157.281 87.5303C157.206 87.5301 157.133 87.5113 157.068 87.4753C157.003 87.4359 156.949 87.3797 156.911 87.3123C156.874 87.2448 156.854 87.1684 156.854 87.0907V80.6931C156.854 80.5765 156.899 80.4647 156.979 80.3823C157.059 80.2998 157.168 80.2535 157.281 80.2535C157.394 80.2535 157.502 80.2998 157.582 80.3823C157.662 80.4647 157.707 80.5765 157.707 80.6931V86.3337L162.447 83.5134C162.513 83.4767 162.586 83.4578 162.661 83.4585C162.725 83.4594 162.789 83.4753 162.847 83.5051C162.905 83.5349 162.956 83.5777 162.996 83.6305C163.036 83.6832 163.064 83.7445 163.077 83.8099C163.091 83.8752 163.09 83.9429 163.075 84.0079C163.061 84.0642 163.035 84.1169 163.001 84.163C162.966 84.2091 162.923 84.2477 162.874 84.2765L157.5 87.4753C157.433 87.513 157.357 87.532 157.281 87.5303Z" fill="#8F8F8F"/>
<path d="M211.073 17.1318C210.959 17.1318 210.851 17.0855 210.771 17.0031C210.691 16.9207 210.646 16.8089 210.646 16.6923V11.0516L205.906 13.872C205.842 13.9124 205.768 13.9336 205.693 13.933C205.617 13.9331 205.543 13.9128 205.478 13.8743C205.412 13.8357 205.358 13.7802 205.319 13.7132C205.265 13.6109 205.25 13.4908 205.278 13.3775C205.295 13.3221 205.322 13.2707 205.359 13.2267C205.396 13.1826 205.441 13.1467 205.491 13.1211L210.865 9.91616C210.931 9.88021 211.004 9.86135 211.078 9.86122C211.153 9.86057 211.226 9.87948 211.292 9.91616C211.358 9.95458 211.412 10.0106 211.45 10.0783C211.487 10.1459 211.506 10.2228 211.505 10.3008V16.6923C211.505 16.7505 211.494 16.8082 211.472 16.8619C211.45 16.9157 211.418 16.9644 211.378 17.0053C211.338 17.0462 211.29 17.0784 211.238 17.1001C211.185 17.1219 211.129 17.1326 211.073 17.1318Z" fill="#8F8F8F"/>
<path d="M205.699 58.7348C205.623 58.7349 205.549 58.7147 205.484 58.6761C205.418 58.6376 205.364 58.582 205.325 58.5151C205.27 58.4127 205.256 58.2926 205.284 58.1793C205.313 58.0672 205.383 57.971 205.479 57.9107L210.646 54.8584V48.6927C210.646 48.5761 210.691 48.4643 210.771 48.3819C210.851 48.2995 210.959 48.2532 211.073 48.2532C211.186 48.2532 211.294 48.2995 211.374 48.3819C211.454 48.4643 211.499 48.5761 211.499 48.6927V55.0904C211.5 55.1683 211.481 55.2452 211.444 55.3128C211.406 55.3805 211.352 55.4365 211.286 55.4749L205.906 58.6738C205.843 58.7116 205.772 58.7326 205.699 58.7348Z" fill="#8F8F8F"/>
<g opacity="0.5">
<path d="M180.915 64.9005C179.914 64.9104 178.928 64.6449 178.059 64.1313C175.66 62.7028 174.279 59.4307 174.279 55.1575C174.279 47.2215 179.019 37.9363 184.802 34.4872C186.101 33.6599 187.589 33.2008 189.115 33.1564C190.118 33.1466 191.106 33.412 191.977 33.9256C194.376 35.3541 195.751 38.62 195.751 42.8933C195.751 50.8293 191.011 60.1205 185.228 63.5696C183.93 64.3978 182.442 64.8569 180.915 64.9005ZM189.115 34.0355C187.738 34.0851 186.398 34.5061 185.228 35.2564C179.665 38.5712 175.156 47.5023 175.156 55.1697C175.156 59.1255 176.377 62.1167 178.51 63.3804C179.249 63.8202 180.091 64.0459 180.945 64.0336C182.32 63.9864 183.659 63.5651 184.825 62.8127C190.395 59.504 194.898 50.6034 194.898 42.8994C194.898 38.9497 193.677 35.9584 191.55 34.6948C190.81 34.2556 189.969 34.028 189.115 34.0355Z" fill="#8F8F8F"/>
<path d="M185.015 37.8751C184.959 37.8751 184.904 37.8637 184.852 37.8417C184.8 37.8196 184.753 37.7872 184.713 37.7464C184.674 37.7056 184.642 37.6571 184.621 37.6038C184.599 37.5505 184.588 37.4933 184.588 37.4356V30.3237C184.588 30.2071 184.633 30.0953 184.713 30.0129C184.793 29.9305 184.902 29.8842 185.015 29.8842C185.128 29.8842 185.237 29.9305 185.317 30.0129C185.397 30.0953 185.442 30.2071 185.442 30.3237V37.4356C185.442 37.5522 185.397 37.6639 185.317 37.7464C185.237 37.8288 185.128 37.8751 185.015 37.8751Z" fill="#8F8F8F"/>
<path d="M171.406 57.5626C171.312 57.5631 171.221 57.5318 171.146 57.4735C171.071 57.4152 171.017 57.3332 170.992 57.2401C170.967 57.147 170.973 57.048 171.008 56.9584C171.043 56.8689 171.106 56.7937 171.186 56.7446L176.365 53.6923C176.429 53.6518 176.503 53.6307 176.578 53.6312C176.653 53.6312 176.728 53.6514 176.793 53.6899C176.858 53.7285 176.913 53.784 176.951 53.851C176.981 53.9016 177 53.9579 177.008 54.0163C177.016 54.0748 177.012 54.1342 176.997 54.1912C176.982 54.2482 176.956 54.3015 176.921 54.3479C176.886 54.3943 176.841 54.433 176.791 54.4615L171.613 57.5443C171.547 57.5685 171.475 57.5748 171.406 57.5626Z" fill="#8F8F8F"/>
<path d="M185.015 68.1725C184.902 68.1709 184.795 68.1241 184.715 68.042C184.635 67.9599 184.59 67.849 184.588 67.7329V60.6149C184.588 60.4984 184.633 60.3866 184.713 60.3041C184.793 60.2217 184.902 60.1754 185.015 60.1754C185.128 60.1754 185.237 60.2217 185.317 60.3041C185.397 60.3866 185.442 60.4984 185.442 60.6149V67.7329C185.442 67.8495 185.397 67.9613 185.317 68.0437C185.237 68.1262 185.128 68.1725 185.015 68.1725Z" fill="#8F8F8F"/>
<path d="M193.452 44.4499C193.378 44.4489 193.305 44.4282 193.24 44.3897C193.176 44.3512 193.122 44.2962 193.085 44.2301C193.054 44.1801 193.034 44.1242 193.025 44.0658C193.016 44.0074 193.019 43.9478 193.034 43.8906C193.048 43.8335 193.074 43.7799 193.109 43.7333C193.144 43.6867 193.188 43.648 193.239 43.6196L198.417 40.5673C198.482 40.5288 198.555 40.5078 198.63 40.5063C198.725 40.5047 198.818 40.536 198.894 40.5951C198.97 40.6542 199.025 40.7378 199.049 40.8325C199.074 40.9273 199.067 41.0277 199.03 41.118C198.992 41.2082 198.927 41.283 198.844 41.3304L193.665 44.3827C193.601 44.4234 193.527 44.4465 193.452 44.4499Z" fill="#8F8F8F"/>
</g>
</svg>
